<svg width="32" height="32" viewBox="0 0 32 32" fill="none" xmlns="http://www.w3.org/2000/svg">
<path opacity="0.3" fill-rule="evenodd" clip-rule="evenodd" d="M6.6665 9.33333C6.6665 12.2789 9.05432 14.6667 11.9998 14.6667C14.9454 14.6667 17.3332 12.2789 17.3332 9.33333C17.3332 6.38781 14.9454 4 11.9998 4C9.05432 4 6.6665 6.38781 6.6665 9.33333ZM19.9998 14.6667C19.9998 16.8758 21.7907 18.6667 23.9998 18.6667C26.209 18.6667 27.9998 16.8758 27.9998 14.6667C27.9998 12.4575 26.209 10.6667 23.9998 10.6667C21.7907 10.6667 19.9998 12.4575 19.9998 14.6667Z" fill="#14347D"/>
<path fill-rule="evenodd" clip-rule="evenodd" d="M11.9778 17.333C5.68255 17.333 0.517678 20.5684 0.000868912 26.9319C-0.0272823 27.2786 0.635616 27.9997 0.970003 27.9997H22.9956C23.9972 27.9997 24.0128 27.1936 23.9972 26.933C23.6065 20.3906 18.3616 17.333 11.9778 17.333ZM31.2746 27.9997L26.1333 27.9997C26.1333 24.9984 25.1417 22.2288 23.4682 20.0005C28.0103 20.0501 31.7189 22.3465 31.998 27.1997C32.0092 27.3951 31.998 27.9997 31.2746 27.9997Z" fill="#14347D"/>
</svg>
