<svg width="29" height="29" viewBox="0 0 29 29" fill="none" xmlns="http://www.w3.org/2000/svg">
<path fill-rule="evenodd" clip-rule="evenodd" d="M26.9642 22.1005C27.2798 22.4161 27.8193 22.1914 27.8177 21.7451L27.7967 15.8355V6.67763C27.7967 4.99171 26.43 3.625 24.744 3.625H10.4984C8.81251 3.625 7.4458 4.99171 7.4458 6.67763V10.875H16.3336C17.9904 10.875 19.3336 12.2181 19.3336 13.875V18.8882H23.7519L26.9642 22.1005Z" fill="#14347D"/>
<path opacity="0.3" fill-rule="evenodd" clip-rule="evenodd" d="M2.39844 21.7503V15.7087C2.39844 14.374 3.48042 13.292 4.8151 13.292H14.4818C15.8165 13.292 16.8984 14.374 16.8984 15.7087V21.7503C16.8984 23.085 15.8165 24.167 14.4818 24.167H4.95495L3.27576 25.7742C2.95776 26.0786 2.43004 25.8532 2.43004 25.413V22.1421C2.40925 22.0146 2.39844 21.8837 2.39844 21.7503ZM7.2498 17.417C7.2498 17.1408 7.47365 16.917 7.7498 16.917H13.9998C14.2759 16.917 14.4998 17.1408 14.4998 17.417V17.6253C14.4998 17.9015 14.2759 18.1253 13.9998 18.1253H7.7498C7.47365 18.1253 7.2498 17.9015 7.2498 17.6253V17.417ZM11.3748 19.3337C11.0987 19.3337 10.8748 19.5575 10.8748 19.8337V20.042C10.8748 20.3181 11.0987 20.542 11.3748 20.542H13.9998C14.2759 20.542 14.4998 20.3181 14.4998 20.042V19.8337C14.4998 19.5575 14.2759 19.3337 13.9998 19.3337H11.3748Z" fill="#14347D"/>
</svg>
