<svg width="159" height="16" viewBox="0 0 159 16" fill="none" xmlns="http://www.w3.org/2000/svg">
<path d="M33.42 14.5731C32.9698 14.5731 32.6323 14.5731 32.2947 14.4624C32.0696 14.4624 31.9571 14.3517 31.7321 14.241C31.507 14.0196 31.3945 13.7982 31.2819 13.5768C31.1694 13.3554 31.1694 13.0233 31.0569 12.6912C31.0569 12.4698 31.0569 12.2484 30.9444 12.027C30.8318 11.2521 30.7193 10.4772 30.6068 9.70233C30.4943 8.92743 30.3817 8.26324 30.2692 7.48834C30.1567 6.27064 29.9316 5.05294 29.8191 3.83524C29.7066 3.06034 29.594 2.39615 29.4815 1.62125C29.4815 1.51055 29.4815 1.39985 29.4815 1.28915C29.4815 1.17845 29.4815 1.06775 29.369 0.957048C29.2565 0.846348 29.1439 0.846348 29.0314 0.957048L28.9189 1.06775C28.5813 1.73195 28.2437 2.28545 27.9061 2.94964C27.456 3.72454 27.0059 4.61014 26.5558 5.38504C25.8807 6.60274 25.2055 7.82044 24.5304 9.14883C24.1928 9.70233 23.9677 10.2558 23.6301 10.6986C23.4051 11.1414 23.18 11.5842 22.955 12.027C22.955 12.027 22.955 12.1377 22.8425 12.1377C22.7299 12.2484 22.6174 12.2484 22.6174 12.1377C22.3923 11.8056 22.1673 11.3628 22.0548 11.0307C21.6047 10.1451 21.042 9.25953 20.5919 8.48464C20.0293 7.37764 19.4667 6.38134 18.904 5.38504C18.4539 4.49944 17.8913 3.61384 17.4412 2.72825C17.2161 2.28545 16.8785 1.84265 16.6535 1.39985C16.541 1.28915 16.4284 1.06775 16.3159 0.957048C16.0909 0.846348 15.9783 0.846348 15.8658 0.957048C15.8658 1.06775 15.7533 1.17845 15.7533 1.28915C15.6408 2.06405 15.5282 2.83894 15.4157 3.61384C15.1906 5.38504 14.9656 7.26694 14.7405 9.03813C14.628 9.92373 14.5155 10.8093 14.403 11.6949C14.2904 12.2484 14.2904 12.6912 14.1779 13.2447C14.1779 13.4661 14.0654 13.6875 14.0654 13.9089C13.9529 14.241 13.7278 14.3517 13.3902 14.4624C13.2777 14.4624 13.0526 14.4624 12.9401 14.4624C12.8276 14.4624 12.8276 14.4624 12.7151 14.4624C12.6025 14.4624 12.6025 14.4624 12.6025 14.5731C12.6025 14.6838 12.6025 14.6838 12.7151 14.6838C12.8276 14.6838 12.8276 14.6838 12.9401 14.6838C13.1652 14.6838 13.2777 14.6838 13.5028 14.6838C13.9529 14.6838 14.403 14.6838 14.628 14.5731C15.1906 14.5731 15.5282 14.5731 15.8658 14.5731C16.0909 14.5731 16.3159 14.5731 16.541 14.5731C16.6535 14.5731 16.766 14.5731 16.766 14.4624C16.8785 14.4624 16.8785 14.241 16.766 14.241C16.6535 14.241 16.6535 14.241 16.541 14.241C16.3159 14.241 16.0909 14.241 15.8658 14.1303C15.5282 14.0196 15.4157 13.9089 15.4157 13.5768C15.4157 13.0233 15.4157 12.5805 15.5282 12.027C15.5282 11.5842 15.6408 11.0307 15.6408 10.5879C15.6408 10.1451 15.7533 9.70233 15.7533 9.25953C15.8658 8.59534 15.8658 7.93114 15.9783 7.37764C16.0909 6.49204 16.0909 5.71714 16.2034 4.83154V4.72084C16.2034 4.72084 16.2034 4.61014 16.3159 4.61014H16.4284L16.541 4.72084C16.6535 4.94224 16.766 5.16364 16.8785 5.38504C17.4412 6.49204 18.0038 7.48834 18.679 8.59534C19.0166 9.14883 19.3541 9.81303 19.6917 10.3665C20.1418 11.2521 20.7045 12.027 21.1546 12.9126C21.3796 13.2447 21.6047 13.6875 21.8297 14.0196C21.9422 14.1303 21.9422 14.241 22.0548 14.3517C22.1673 14.4624 22.2798 14.4624 22.5049 14.3517L22.6174 14.241C22.7299 14.1303 22.8425 13.9089 22.8425 13.7982C23.4051 12.6912 24.0802 11.5842 24.6429 10.4772C25.093 9.59163 25.6556 8.70603 26.1057 7.70974C26.4433 7.15624 26.7809 6.49204 27.0059 5.93854C27.231 5.49574 27.456 5.05294 27.6811 4.61014C27.6811 4.61014 27.6811 4.49944 27.7936 4.49944C27.9061 4.38874 27.9062 4.49944 28.0187 4.49944C28.0187 4.61014 28.0187 4.61014 28.0187 4.72084C28.1312 5.49574 28.1312 6.27064 28.2437 7.04554C28.3563 8.04184 28.4688 9.03813 28.5813 10.0344C28.6938 10.92 28.8064 11.8056 28.9189 12.6912C28.9189 13.0233 29.0314 13.3554 29.0314 13.5768C29.0314 13.6875 29.0314 13.9089 28.9189 14.0196C28.8064 14.1303 28.8064 14.241 29.0314 14.3517H29.1439C29.369 14.3517 29.594 14.3517 29.7066 14.3517C30.6068 14.3517 31.507 14.4624 32.4072 14.4624C32.6323 14.4624 32.7448 14.4624 32.9698 14.4624C33.0824 14.4624 33.0824 14.4624 33.1949 14.4624C33.3074 14.4624 33.3074 14.3517 33.3074 14.3517C33.645 14.5731 33.5325 14.5731 33.42 14.5731Z" fill="white"/>
<path d="M158.887 14.6838H158.775C158.662 14.6838 158.662 14.6838 158.55 14.6838C157.875 14.6838 157.312 14.5731 156.749 14.1303C156.299 13.9089 155.962 13.5768 155.624 13.2447C154.837 12.4698 154.049 11.5842 153.261 10.8093C152.699 10.1451 152.136 9.59157 151.573 8.92737C151.348 8.70597 151.348 8.70597 151.573 8.48457C152.248 7.93107 152.924 7.26688 153.374 6.49198C153.824 5.82778 153.936 5.05288 153.824 4.27798C153.824 4.16728 153.824 4.05658 153.711 3.94588C153.374 2.83888 152.586 2.06398 151.348 1.73189C150.786 1.51049 150.11 1.51049 149.548 1.39979C148.535 1.28909 147.522 1.39979 146.51 1.39979C145.834 1.39979 145.159 1.39979 144.484 1.39979C144.147 1.39979 143.696 1.39979 143.359 1.39979H143.246C143.134 1.39979 143.134 1.51049 143.134 1.51049C143.134 1.62119 143.134 1.62119 143.246 1.62119C143.359 1.62119 143.359 1.62119 143.471 1.62119C143.696 1.62119 143.809 1.62119 144.034 1.62119C144.147 1.62119 144.259 1.62119 144.372 1.73189C144.597 1.84259 144.822 1.95328 144.822 2.17468C144.822 2.28538 144.934 2.39608 144.934 2.50678C144.934 2.94958 144.934 3.28168 144.934 3.72448C144.934 5.05288 144.934 6.49198 144.934 7.82037C144.934 9.25947 144.934 10.6986 144.934 12.1377C144.934 12.6912 144.934 13.2447 144.822 13.6875C144.822 13.7982 144.709 13.9089 144.709 14.0196C144.597 14.241 144.484 14.3517 144.259 14.4624C144.147 14.4624 143.921 14.4624 143.809 14.4624C143.696 14.4624 143.696 14.4624 143.584 14.4624L143.471 14.5731C143.471 14.6838 143.471 14.6838 143.584 14.6838C143.696 14.6838 143.696 14.6838 143.809 14.6838C144.372 14.6838 144.934 14.6838 145.497 14.6838C145.722 14.6838 145.947 14.6838 146.285 14.6838C146.96 14.6838 147.747 14.6838 148.423 14.6838C148.535 14.6838 148.535 14.6838 148.648 14.6838C148.76 14.6838 148.76 14.5731 148.76 14.5731C148.76 14.4624 148.76 14.4624 148.648 14.4624C148.535 14.4624 148.535 14.4624 148.423 14.4624C148.197 14.4624 147.86 14.4624 147.635 14.3517C147.297 14.241 146.96 14.0196 146.96 13.6875C146.96 13.5768 146.847 13.3554 146.847 13.2447C146.847 12.5805 146.735 12.027 146.735 11.3628C146.735 10.6986 146.735 10.0344 146.735 9.25947C146.735 9.14877 146.735 9.14877 146.735 9.03807C146.735 8.92737 146.847 8.92737 146.96 8.81667C147.072 8.81667 147.072 8.81667 147.185 8.81667C147.297 8.81667 147.522 8.81667 147.635 8.81667C148.197 8.81667 148.873 8.81667 149.435 8.81667C149.66 8.81667 149.773 8.81667 149.885 9.03807C149.998 9.14877 150.11 9.25947 150.11 9.37017C150.898 10.2558 151.686 11.1414 152.361 12.027C152.811 12.5805 153.374 13.134 153.936 13.6875C154.611 14.241 155.399 14.6838 156.299 14.6838C157.087 14.6838 157.875 14.6838 158.775 14.6838H158.887H159C159 14.7945 159 14.6838 158.887 14.6838ZM150.11 8.37387C149.66 8.48457 149.21 8.48457 148.76 8.48457C148.31 8.48457 147.86 8.37387 147.41 8.37387C147.297 8.37387 147.072 8.37387 146.96 8.26317C146.735 8.15247 146.622 8.04177 146.622 7.82037C146.622 6.93478 146.622 6.04918 146.622 5.05288C146.622 4.16728 146.622 3.28168 146.622 2.39608V2.28538C146.622 2.17468 146.735 2.06398 146.847 2.06398C146.847 2.06398 146.96 2.06398 147.072 2.06398C147.635 1.95328 148.31 1.95328 148.985 2.06398C149.66 2.17468 150.335 2.39608 150.898 2.83888C151.461 3.28168 151.911 3.94588 152.023 4.72078C152.136 5.27428 152.136 5.82778 152.023 6.38128C151.911 6.93478 151.686 7.48828 151.348 7.93107C150.898 8.04177 150.561 8.26317 150.11 8.37387Z" fill="white"/>
<path d="M51.987 14.5731C51.8745 14.5731 51.8745 14.5731 51.762 14.5731C51.0868 14.5731 50.5242 14.3517 50.0741 13.7982C49.9615 13.6875 49.849 13.5768 49.849 13.4661C49.624 13.134 49.3989 12.6912 49.1739 12.3591C48.7238 11.3628 48.2736 10.4772 47.8235 9.48093C47.3734 8.37394 46.8108 7.26694 46.3607 6.15994C46.0231 5.38504 45.6855 4.72084 45.348 3.94594C45.1229 3.50314 45.0104 3.17104 44.7853 2.72825C44.5603 2.17475 44.2227 1.62125 43.9976 1.06775C43.9976 1.06775 43.9976 0.957048 43.8851 0.957048C43.7726 0.846348 43.5475 0.846348 43.5475 0.957048C43.5475 0.957048 43.5475 1.06775 43.435 1.06775C43.21 1.51055 42.9849 1.95335 42.8724 2.39615C42.5348 2.94964 42.3097 3.61384 41.9722 4.16734C41.6346 4.94224 41.297 5.60644 41.072 6.38134C40.7344 7.26694 40.2843 8.15254 39.9467 9.03813C39.7216 9.48093 39.4966 10.0344 39.3841 10.4772C39.159 11.0307 38.9339 11.5842 38.5964 12.1377C38.4838 12.4698 38.2588 12.9126 38.1463 13.2447C38.0337 13.4661 37.9212 13.6875 37.6962 13.9089C37.4711 14.241 37.021 14.4624 36.6834 14.4624C36.4584 14.4624 36.3458 14.4624 36.1208 14.4624C36.0083 14.4624 36.0083 14.4624 35.8957 14.4624L35.7832 14.5731C35.7832 14.5731 35.7832 14.6838 35.8957 14.6838C36.0083 14.6838 36.0083 14.7945 36.1208 14.7945C36.3458 14.7945 36.6834 14.7945 36.9085 14.7945C37.6962 14.7945 38.3713 14.6838 39.159 14.7945C39.4966 14.7945 39.8342 14.7945 40.0592 14.7945C40.1717 14.7945 40.1717 14.7945 40.2843 14.7945C40.3968 14.7945 40.3968 14.6838 40.3968 14.6838C40.3968 14.5731 40.3968 14.5731 40.2843 14.5731C40.1717 14.5731 40.1717 14.5731 40.0592 14.5731C39.9467 14.5731 39.8342 14.5731 39.6091 14.4624C39.3841 14.3517 39.2715 14.241 39.2715 14.0196C39.2715 13.9089 39.2715 13.7982 39.3841 13.6875C39.4966 13.2447 39.6091 12.9126 39.8342 12.4698C39.9467 12.1377 40.1717 11.6949 40.2843 11.3628C40.3968 11.0307 40.6218 10.5879 40.7344 10.2558C40.8469 10.0344 40.8469 9.92373 41.1845 9.92373C41.1845 9.92373 45.348 9.92373 45.6855 9.92373C46.0231 9.92373 46.0231 10.0344 46.1356 10.2558C46.1356 10.3665 47.3734 12.9126 47.9361 14.1303V14.241C48.0486 14.4624 47.9361 14.4624 47.8235 14.5731C47.8235 14.5731 47.711 14.5731 47.711 14.6838C47.5985 14.7945 47.5985 14.9052 47.711 14.9052H47.8235C48.1611 14.9052 48.4987 14.9052 48.9488 14.9052C49.849 14.9052 50.7492 14.9052 51.6494 14.9052C51.762 14.9052 51.762 14.9052 51.8745 14.9052H51.987C52.0996 14.7945 52.0996 14.6838 51.987 14.5731C52.0996 14.5731 51.987 14.5731 51.987 14.5731ZM45.348 9.03813C44.6728 9.03813 42.0847 9.03813 41.5221 9.03813C41.1845 9.03813 41.1845 9.03813 41.297 8.70603C41.5221 8.15254 41.8596 7.37764 42.0847 6.82414C42.3097 6.15994 42.6473 5.49574 42.8724 4.72084C42.9849 4.49944 42.9849 4.27804 43.0974 4.05664C43.0974 3.94594 43.21 3.94594 43.21 3.83524C43.3225 3.72454 43.435 3.72454 43.5475 3.83524L43.6601 3.94594C44.2227 5.16364 44.6728 6.38134 45.2354 7.59904C45.348 7.93114 45.573 8.37394 45.6855 8.70603C45.6855 9.03813 45.6855 9.03813 45.348 9.03813Z" fill="white"/>
<path d="M139.083 12.5805V12.6912C139.083 12.8019 139.083 12.9126 139.083 12.9126C138.97 13.3554 138.745 13.5768 138.407 13.7982C138.182 13.9089 137.957 14.0196 137.62 14.0196C136.832 14.1303 135.932 14.1303 135.144 14.1303C134.919 14.1303 134.581 14.1303 134.356 14.0196C133.906 13.9089 133.569 13.5768 133.456 13.134C133.456 12.9126 133.456 12.6912 133.456 12.4698C133.456 11.0307 133.456 9.70232 133.456 8.26322V8.15252C133.456 8.04182 133.569 7.93112 133.681 7.93112C133.681 7.93112 135.032 7.93112 135.707 7.93112C135.932 7.93112 136.269 7.93112 136.494 7.93112C136.832 7.93112 137.057 8.04182 137.395 8.04182C137.62 8.15252 137.845 8.26322 137.845 8.59532C137.845 8.70602 137.845 8.81672 137.845 8.92742V9.03812C137.845 9.14882 137.845 9.14882 137.957 9.14882C138.07 9.14882 138.07 9.14882 138.07 9.03812C138.07 8.92742 138.07 8.92742 138.07 8.81672C138.07 8.59532 138.07 8.37392 138.07 8.15252C138.182 7.70972 138.182 7.26692 138.295 6.82412C138.295 6.71342 138.295 6.60272 138.182 6.49202C138.07 6.49202 137.957 6.49202 137.957 6.60272C137.732 6.82412 137.507 6.93482 137.282 6.93482C136.832 6.93482 136.269 6.93482 135.819 7.04552C135.369 7.04552 134.919 7.04552 134.469 7.04552C134.131 7.04552 133.794 7.04552 133.569 7.04552C133.344 7.04552 133.231 6.93482 133.231 6.71342C133.231 6.60272 133.231 6.49202 133.231 6.38132C133.231 5.16362 133.231 3.83523 133.231 2.61753C133.231 2.39613 133.231 2.28543 133.231 2.06403C133.231 1.84263 133.344 1.73193 133.569 1.73193H133.681C134.356 1.73193 135.257 1.73193 135.819 1.73193C136.382 1.73193 136.719 1.84263 137.282 1.95333C137.395 1.95333 137.507 1.95333 137.507 2.06403C137.732 2.17473 137.957 2.39613 137.957 2.61753C137.957 2.72823 137.957 2.83893 137.957 2.94963C137.957 3.06033 137.957 3.06033 137.957 3.17103L138.07 3.28173C138.182 3.28173 138.182 3.28173 138.182 3.17103C138.182 3.06033 138.182 3.06033 138.295 2.94963C138.295 2.83893 138.295 2.61753 138.295 2.50683C138.295 2.06403 138.407 1.73193 138.52 1.28913C138.52 1.28913 138.52 1.17843 138.52 1.06773C138.52 0.957031 138.407 0.957031 138.295 0.957031H138.182C138.07 0.957031 137.957 1.06773 137.845 1.06773C137.395 1.17843 136.945 1.17843 136.494 1.17843C135.032 1.17843 133.569 1.17843 131.993 1.17843C131.543 1.17843 131.093 1.17843 130.643 1.17843C130.305 1.17843 129.968 1.17843 129.63 1.17843C129.518 1.17843 129.405 1.28913 129.405 1.28913C129.405 1.39983 129.518 1.39983 129.63 1.39983C129.743 1.39983 129.855 1.39983 130.08 1.39983C130.193 1.39983 130.418 1.39983 130.531 1.51053C130.756 1.62123 130.981 1.73193 131.093 2.06403C131.093 2.17473 131.206 2.28543 131.206 2.39613C131.206 2.72823 131.318 3.06033 131.318 3.50313C131.318 5.71712 131.318 7.82042 131.318 10.0344C131.318 10.8093 131.318 11.5842 131.318 12.3591C131.318 12.9126 131.206 13.4661 131.093 13.9089C131.093 14.0196 131.093 14.1303 130.981 14.241C130.868 14.4624 130.756 14.5731 130.531 14.5731C130.418 14.5731 130.305 14.5731 130.08 14.5731C129.968 14.5731 129.968 14.5731 129.855 14.5731C129.743 14.5731 129.743 14.6838 129.743 14.6838C129.743 14.7945 129.855 14.7945 129.968 14.7945C130.08 14.7945 130.08 14.7945 130.193 14.7945C130.756 14.7945 131.318 14.7945 131.993 14.7945C132.669 14.7945 133.456 14.7945 134.131 14.7945C135.144 14.7945 136.044 14.7945 137.057 14.7945H137.17C137.507 14.7945 137.845 14.7945 138.182 14.7945C138.632 14.7945 138.745 14.6838 138.857 14.241C138.97 13.6875 138.97 13.2447 139.083 12.6912C139.083 12.5805 139.083 12.5805 139.083 12.4698C139.195 12.4698 139.083 12.4698 139.083 12.5805Z" fill="white"/>
<path d="M7.2017 8.59499C6.52654 8.04149 5.96391 7.59869 5.17622 7.15589C4.61359 6.82379 4.05096 6.49169 3.48832 6.15959C3.15074 5.82749 2.70064 5.60609 2.36306 5.16329C2.138 4.94189 1.91295 4.60979 1.80042 4.27769C1.46284 3.3921 1.91295 2.5065 2.58811 2.0637C3.03822 1.8423 3.48832 1.7316 3.93843 1.6209C4.50106 1.5102 4.95117 1.6209 5.5138 1.6209C5.96391 1.8423 6.41401 1.953 6.86412 2.1744C7.2017 2.2851 7.31423 2.5065 7.42675 2.8386C7.42675 3.06 7.53928 3.2814 7.53928 3.3921C7.53928 3.5028 7.53928 3.5028 7.65181 3.6135C7.65181 3.7242 7.76433 3.7242 7.76433 3.7242L7.87686 3.6135C7.87686 3.5028 7.87686 3.5028 7.87686 3.3921C7.87686 3.1707 7.87686 2.9493 7.87686 2.7279C7.87686 2.3958 7.87686 2.0637 7.98939 1.7316C7.98939 1.5102 7.98939 1.3995 7.65181 1.3995C7.53928 1.3995 7.42675 1.3995 7.2017 1.3995C6.86412 1.1781 6.41401 1.0674 5.96391 1.0674C5.40127 0.9567 4.83864 0.9567 4.16348 1.0674C3.48832 1.1781 2.81316 1.2888 2.138 1.5102C1.57537 1.7316 1.12527 2.0637 0.787686 2.5065C0.33758 3.1707 0.225053 3.83489 0.225053 4.49909C0.225053 5.16329 0.450106 5.71679 0.900212 6.27029C1.01274 6.38099 1.12527 6.49169 1.23779 6.60239C1.6879 7.15589 2.25053 7.48799 2.81316 7.93079C3.3758 8.26289 3.93843 8.70569 4.50106 9.03779C4.83864 9.25919 5.28875 9.59129 5.62633 9.81269C5.96391 10.1448 6.30149 10.3662 6.52654 10.6983C7.31423 11.8053 6.86412 13.1337 5.96391 13.7979C5.5138 14.13 4.95117 14.2407 4.38854 14.3514C3.93843 14.3514 3.60085 14.3514 3.15074 14.3514C2.58811 14.3514 2.138 14.2407 1.6879 14.0193C1.23779 13.7979 0.900212 13.5765 0.675159 13.1337C0.450106 12.8016 0.450106 12.4695 0.450106 12.1374C0.450106 12.0267 0.450106 12.0267 0.450106 11.916C0.450106 11.8053 0.33758 11.8053 0.33758 11.8053C0.225053 11.8053 0.225053 11.8053 0.225053 11.916V12.0267C0.225053 12.2481 0.112527 12.5802 0.112527 12.8016C0.112527 13.2444 0.112527 13.6872 0 14.13C0 14.2407 0.112527 14.3514 0.225053 14.4621C0.33758 14.5728 0.450106 14.5728 0.450106 14.5728C0.675159 14.6835 0.787686 14.6835 1.01274 14.7942C1.80042 15.0156 2.58811 15.0156 3.71338 15.1263C4.05096 15.1263 4.83864 15.1263 5.28875 15.0156C6.07643 14.9049 6.86412 14.5728 7.42675 14.0193C8.10191 13.4658 8.55202 12.8016 8.66454 12.0267C8.77707 11.3625 8.66454 10.6983 8.43949 10.0341C7.98939 9.48059 7.65181 9.03779 7.2017 8.59499Z" fill="white"/>
<path d="M96.8854 1.17871C96.6603 1.28941 96.4353 1.28941 96.3228 1.28941C96.0977 1.28941 95.7601 1.28941 95.5351 1.28941C94.4098 1.28941 93.2845 1.28941 92.1593 1.28941C91.4841 1.28941 90.9215 1.28941 90.2463 1.28941C89.7962 1.28941 89.4586 1.28941 89.0085 1.28941C88.6709 1.28941 88.2208 1.28941 87.8833 1.28941H87.7707L87.6582 1.40011C87.6582 1.40011 87.6582 1.51081 87.7707 1.51081H87.8833C87.9958 1.51081 88.1083 1.51081 88.1083 1.51081C88.3334 1.51081 88.4459 1.51081 88.6709 1.51081C89.0085 1.62151 89.2336 1.84291 89.3461 2.17501C89.3461 2.28571 89.3461 2.39641 89.3461 2.39641C89.3461 2.83921 89.3461 3.17131 89.3461 3.61411C89.3461 5.7174 89.3461 7.8207 89.3461 9.924C89.3461 10.9203 89.3461 11.9166 89.2336 12.9129C89.2336 13.245 89.1211 13.4664 89.1211 13.7985C89.1211 13.9092 89.0085 14.0199 89.0085 14.1306C88.896 14.352 88.7835 14.4627 88.5584 14.4627C88.4459 14.4627 88.2208 14.4627 88.1083 14.4627H87.9958C87.8833 14.4627 87.8833 14.5734 87.8833 14.5734C87.8833 14.6841 87.8833 14.6841 87.9958 14.6841C88.1083 14.6841 88.1083 14.6841 88.2208 14.6841C88.7835 14.6841 89.3461 14.6841 89.9087 14.6841C90.1338 14.6841 90.3588 14.6841 90.6964 14.6841C91.4841 14.6841 92.1593 14.6841 92.947 14.6841C93.0595 14.6841 93.0595 14.6841 93.172 14.6841C93.2845 14.6841 93.2845 14.5734 93.2845 14.5734C93.2845 14.4627 93.2845 14.4627 93.172 14.4627C93.0595 14.4627 93.0595 14.4627 92.947 14.4627C92.7219 14.4627 92.4968 14.4627 92.1593 14.4627C91.7092 14.4627 91.4841 14.2413 91.3716 13.7985C91.3716 13.6878 91.3716 13.5771 91.2591 13.4664C91.2591 12.8022 91.1465 12.138 91.1465 11.4738C91.1465 10.4775 91.1465 9.3705 91.1465 8.3742C91.1465 8.2635 91.1465 8.2635 91.1465 8.1528C91.1465 8.0421 91.2591 8.0421 91.3716 7.9314H91.4841C92.2718 7.9314 92.947 7.9314 93.7346 7.9314C93.9597 7.9314 94.2973 7.9314 94.5223 7.9314C94.7474 7.9314 94.9724 8.0421 95.1975 8.0421C95.6476 8.1528 95.9852 8.4849 95.9852 9.0384C95.9852 9.1491 95.9852 9.1491 95.9852 9.2598L96.0977 9.3705C96.2102 9.3705 96.2102 9.3705 96.2102 9.2598C96.2102 9.1491 96.2102 9.1491 96.2102 9.0384C96.2102 8.4849 96.3228 8.0421 96.3228 7.4886C96.5478 7.3779 96.5478 7.2672 96.5478 7.1565C96.5478 7.0458 96.5478 7.0458 96.5478 6.9351C96.5478 6.8244 96.4353 6.7137 96.3228 6.8244C96.2102 6.8244 96.2102 6.9351 96.2102 6.9351C96.0977 7.0458 95.8727 7.1565 95.7601 7.1565C95.6476 7.1565 95.5351 7.1565 95.5351 7.1565C95.1975 7.1565 94.7474 7.1565 94.4098 7.2672C93.6221 7.2672 92.8344 7.2672 92.0467 7.2672C91.9342 7.2672 91.8217 7.2672 91.5966 7.2672C91.3716 7.2672 91.2591 7.1565 91.2591 6.9351C91.2591 6.8244 91.2591 6.7137 91.2591 6.603C91.2591 5.1639 91.2591 3.83551 91.2591 2.39641C91.2591 2.28571 91.2591 2.28571 91.2591 2.17501C91.2591 1.95361 91.3716 1.95361 91.5966 1.95361H91.7092C91.9342 1.95361 92.0467 1.95361 92.2718 1.95361C93.0595 1.95361 93.8472 1.95361 94.6349 1.95361C94.7474 1.95361 94.9724 1.95361 95.085 1.95361C95.31 1.95361 95.5351 2.06431 95.8727 2.06431C96.2102 2.39641 96.4353 2.61781 96.5478 3.06061C96.5478 3.17131 96.5478 3.17131 96.5478 3.28201V3.39271C96.6603 3.50341 96.7729 3.50341 96.7729 3.39271L96.8854 3.28201C96.8854 3.17131 96.8854 3.06061 96.8854 3.06061C96.8854 2.50711 96.8854 2.06431 97.1104 1.51081V1.40011C97.1104 1.17871 97.1104 1.17871 96.8854 1.17871Z" fill="white"/>
<path d="M127.042 1.28906C127.042 1.28906 126.93 1.28906 126.817 1.28906C126.592 1.28906 126.367 1.28906 126.142 1.28906C125.58 1.28906 125.017 1.28906 124.454 1.28906C124.117 1.28906 123.667 1.28906 123.329 1.28906C123.217 1.28906 123.217 1.28906 123.104 1.28906C123.104 1.28906 122.991 1.28906 122.991 1.39976C122.991 1.39976 122.991 1.51046 123.104 1.51046C123.217 1.51046 123.217 1.51046 123.329 1.62116C123.554 1.73186 123.667 1.84256 123.667 2.06396C123.667 2.17466 123.667 2.28536 123.667 2.28536C123.554 2.50676 123.554 2.72816 123.442 2.83886C123.104 3.39236 121.304 6.04915 120.741 6.93475C120.516 7.26685 120.291 7.59895 120.178 7.82035C120.066 8.04175 119.953 8.04175 119.841 7.82035C119.728 7.70965 119.728 7.59895 119.616 7.48825C119.166 6.93475 118.828 6.27055 118.378 5.71705C118.04 5.16356 116.577 3.06026 116.127 2.50676C116.015 2.39606 115.902 2.17466 115.902 2.06396C115.79 1.84256 115.902 1.62116 116.127 1.62116C116.127 1.62116 116.127 1.62116 116.24 1.62116C116.352 1.62116 116.465 1.51046 116.352 1.39976C116.352 1.28906 116.24 1.28906 116.127 1.28906C115.79 1.28906 115.565 1.28906 115.227 1.28906C114.665 1.28906 114.102 1.28906 113.539 1.28906C113.089 1.28906 112.639 1.28906 112.301 1.28906C112.189 1.28906 112.189 1.28906 112.076 1.28906C111.964 1.28906 111.964 1.28906 111.964 1.39976C111.964 1.51046 111.964 1.51046 112.076 1.51046C112.189 1.51046 112.189 1.51046 112.301 1.51046C112.639 1.51046 112.977 1.62116 113.202 1.84256C113.539 2.06396 113.877 2.28536 114.102 2.61746C114.439 3.06026 114.89 3.61376 115.227 4.05656C115.902 4.94216 116.465 5.82775 117.14 6.71335C117.478 7.26685 117.815 7.70965 118.153 8.26315C118.49 8.70595 118.603 9.14875 118.715 9.70225C118.715 9.81295 118.715 11.5841 118.715 12.359C118.715 12.8018 118.715 13.1339 118.715 13.5767C118.715 13.7981 118.715 13.9088 118.603 14.1302C118.49 14.3516 118.265 14.573 117.928 14.573C117.815 14.573 117.703 14.573 117.59 14.573H117.478C117.365 14.573 117.365 14.573 117.365 14.6837C117.365 14.7944 117.365 14.7944 117.478 14.7944C117.59 14.7944 117.59 14.7944 117.703 14.7944C118.265 14.7944 118.828 14.7944 119.503 14.7944C119.728 14.7944 119.953 14.7944 120.066 14.7944C120.403 14.7944 120.853 14.7944 121.191 14.7944C121.529 14.7944 121.979 14.7944 122.316 14.7944C122.429 14.7944 122.429 14.7944 122.541 14.7944C122.654 14.7944 122.654 14.6837 122.654 14.6837C122.654 14.573 122.654 14.573 122.541 14.573H122.429H122.316C122.091 14.573 121.866 14.573 121.641 14.4623C121.191 14.3516 120.966 14.1302 120.853 13.7981C120.853 13.6874 120.853 13.5767 120.853 13.5767C120.853 13.0232 120.741 12.4697 120.741 11.8055C120.741 11.0306 120.741 10.3664 120.741 9.59155C120.741 9.14875 120.853 8.70595 121.079 8.26315C121.416 7.82035 121.641 7.37755 121.979 6.93475C122.541 6.04915 123.217 5.16356 123.892 4.27796C124.342 3.72446 124.679 3.17096 125.129 2.61746C125.355 2.39606 125.58 2.06396 125.917 1.95326C126.255 1.73186 126.705 1.51046 127.155 1.51046H127.267H127.38C127.155 1.39976 127.155 1.39976 127.042 1.28906Z" fill="white"/>
<path d="M83.4949 1.17808H83.3824C82.8198 1.28878 82.2571 1.28878 81.6945 1.28878C78.9939 1.28878 76.4058 1.28878 73.7051 1.28878C73.255 1.28878 72.8049 1.28878 72.2423 1.28878C72.0172 1.28878 71.7922 1.28878 71.6796 1.17808C71.4546 1.17808 71.3421 1.06738 71.117 1.06738C70.892 1.06738 70.892 1.06738 70.7794 1.17808C70.7794 1.28878 70.7794 1.28878 70.6669 1.39948C70.5544 1.95298 70.4418 2.50648 70.2168 3.05998C70.2168 3.17068 70.2168 3.17068 70.2168 3.28138C70.2168 3.28138 70.2168 3.39208 70.3293 3.39208H70.4419C70.4419 3.39208 70.5544 3.28138 70.5544 3.17068C70.6669 3.05998 70.6669 2.83858 70.7794 2.72788C70.892 2.50648 71.117 2.28508 71.3421 2.28508C71.5671 2.17438 71.6796 2.17438 71.9047 2.17438C72.6924 2.06368 73.4801 2.06368 74.2678 2.06368C74.7179 2.06368 75.168 2.06368 75.5055 2.06368C75.8431 2.06368 75.9556 2.17438 75.9556 2.50648C75.9556 5.71677 75.9556 8.92707 75.9556 12.1374C75.9556 12.6909 75.9557 13.1337 75.8431 13.6872C75.8431 13.9086 75.7306 14.0193 75.7306 14.2407C75.6181 14.4621 75.5055 14.5728 75.168 14.6835C75.0554 14.6835 74.8304 14.6835 74.7179 14.6835H74.6053C74.4928 14.6835 74.4928 14.6835 74.4928 14.7942C74.4928 14.9049 74.4928 14.9049 74.6053 14.9049C74.7179 14.9049 74.7179 14.9049 74.8304 14.9049C75.393 14.9049 76.0682 14.9049 76.6308 14.9049C76.8559 14.9049 77.0809 14.9049 77.306 14.9049C78.0937 14.9049 78.7688 14.9049 79.5565 14.9049C79.669 14.9049 79.669 14.9049 79.7816 14.9049C79.8941 14.9049 79.8941 14.7942 79.8941 14.7942C79.8941 14.6835 79.8941 14.6835 79.7816 14.6835C79.669 14.6835 79.669 14.6835 79.5565 14.6835C79.3314 14.6835 78.9939 14.6835 78.7688 14.5728C78.4312 14.5728 78.2062 14.3514 78.0937 14.0193C78.0937 13.9086 77.9811 13.6872 77.9811 13.5765C77.9811 13.023 77.8686 12.4695 77.8686 11.916C77.8686 10.5876 77.8686 4.38838 77.8686 2.50648V2.39578C77.8686 2.28508 77.9811 2.17438 78.0937 2.17438C78.0937 2.17438 78.0937 2.17438 78.2062 2.17438C78.7688 2.17438 79.3314 2.17438 79.8941 2.17438C80.1191 2.17438 81.3569 2.28508 81.807 2.28508C82.0321 2.28508 82.2571 2.39578 82.4822 2.50648C82.8198 2.61718 83.0448 2.94928 83.0448 3.28138V3.39208V3.50278C83.1574 3.61348 83.2699 3.61348 83.2699 3.50278C83.2699 3.39208 83.2699 3.39208 83.2699 3.28138C83.2699 3.05998 83.2699 2.94928 83.2699 2.72788C83.2699 2.28508 83.2699 1.84228 83.2699 1.51018C83.2699 1.39948 83.2699 1.39948 83.2699 1.28878C83.72 1.17808 83.6075 1.17808 83.4949 1.17808Z" fill="white"/>
<path d="M111.289 12.4697C111.176 12.4697 111.176 12.4697 111.064 12.5804C111.064 12.6911 111.064 12.6911 110.951 12.8018C110.726 13.466 110.389 13.9088 109.601 14.1302C109.489 14.1302 109.151 14.1302 108.926 14.1302C108.363 14.1302 107.801 14.1302 107.238 14.1302C106.9 14.1302 106.45 14.0195 106.113 14.0195C105.888 14.0195 105.663 13.9088 105.438 13.7981C105.213 13.6874 105.1 13.466 104.987 13.2446C104.987 13.1339 104.875 13.0232 104.875 12.8018C104.762 11.9162 104.762 11.0306 104.762 10.145C104.762 7.70965 104.762 5.16356 104.762 2.72816C104.762 2.50676 104.762 2.28536 104.875 2.06396C104.987 1.73186 105.1 1.62116 105.438 1.51046C105.55 1.51046 105.55 1.51046 105.663 1.51046C105.775 1.51046 105.888 1.51046 106.113 1.51046H106.225C106.338 1.51046 106.338 1.39976 106.338 1.39976C106.338 1.28906 106.338 1.28906 106.225 1.28906H106.113C105.55 1.28906 104.875 1.28906 104.312 1.28906C103.75 1.28906 103.075 1.28906 102.512 1.28906C102.174 1.28906 101.724 1.28906 101.387 1.28906C101.274 1.28906 101.274 1.28906 101.162 1.28906C101.049 1.28906 101.049 1.39976 101.162 1.51046C101.162 1.51046 101.274 1.51046 101.387 1.51046C101.499 1.51046 101.612 1.51046 101.724 1.51046C101.837 1.51046 102.062 1.51046 102.174 1.51046C102.512 1.51046 102.624 1.73186 102.737 1.95326C102.737 2.17466 102.849 2.28536 102.849 2.50676C102.849 2.83886 102.849 3.06026 102.849 3.39236C102.849 6.15985 102.849 8.92735 102.849 11.5841C102.849 12.0269 102.849 12.4697 102.737 13.0232C102.737 13.3553 102.624 13.6874 102.512 13.9088C102.399 14.2409 102.287 14.3516 101.949 14.3516C101.837 14.3516 101.724 14.3516 101.612 14.3516H101.499C101.387 14.3516 101.387 14.4623 101.387 14.4623C101.387 14.573 101.499 14.573 101.499 14.573C101.612 14.573 101.612 14.573 101.724 14.573C102.624 14.573 103.412 14.573 104.312 14.573C104.875 14.573 108.251 14.6837 109.151 14.6837C110.051 14.6837 110.051 14.6837 110.389 14.6837C110.501 14.6837 110.614 14.6837 110.614 14.6837C110.839 14.6837 110.839 14.573 110.951 14.4623C111.064 14.3516 111.064 14.1302 111.064 14.0195C111.176 13.5767 111.176 13.0232 111.289 12.5804C111.289 12.4697 111.289 12.4697 111.289 12.359C111.401 12.4697 111.401 12.4697 111.289 12.4697Z" fill="white"/>
<path d="M70.5545 14.5734C70.442 14.5734 70.442 14.5734 70.3294 14.5734C69.6543 14.5734 69.0917 14.4627 68.529 14.0199C68.0789 13.7985 67.7413 13.4664 67.4038 13.1343C66.6161 12.3594 65.8284 11.4738 65.0407 10.6989C64.4781 10.0347 63.9154 9.48122 63.3528 8.81702C63.1277 8.59562 63.1277 8.59562 63.3528 8.37422C64.028 7.82072 64.5906 7.26722 65.0407 6.38163C65.4908 5.71743 65.6033 4.94253 65.4908 4.16763C65.4908 4.05693 65.4908 3.94623 65.3783 3.83553C65.0407 2.72853 64.253 1.95363 63.0152 1.62153C62.4526 1.40013 61.7774 1.40013 61.2148 1.28943C60.2021 1.17873 59.1893 1.28943 58.1766 1.28943C57.5014 1.28943 56.8263 1.28943 56.1511 1.28943C55.8135 1.28943 55.3634 1.28943 55.0258 1.28943H54.9133C54.8008 1.28943 54.8008 1.40013 54.8008 1.40013C54.8008 1.51083 54.8008 1.51083 54.9133 1.51083C55.0258 1.51083 55.0258 1.51083 55.1384 1.51083C55.3634 1.51083 55.4759 1.51083 55.701 1.51083C55.8135 1.51083 55.926 1.51083 56.0386 1.62153C56.2636 1.73223 56.4887 1.84293 56.4887 2.06433C56.4887 2.17503 56.6012 2.28573 56.6012 2.39643C56.6012 2.83923 56.6012 3.17133 56.6012 3.61413C56.6012 4.94253 56.6012 6.38163 56.6012 7.71002C56.6012 9.14912 56.6012 10.5882 56.6012 12.0273C56.6012 12.5808 56.6012 13.1343 56.4887 13.5771C56.4887 13.6878 56.3762 13.7985 56.3762 13.9092C56.2636 14.1306 56.1511 14.2413 55.926 14.352C55.8135 14.352 55.5885 14.352 55.4759 14.352C55.3634 14.352 55.3634 14.352 55.2509 14.352L55.1384 14.4627C55.1384 14.5734 55.1384 14.5734 55.2509 14.5734C55.3634 14.5734 55.3634 14.5734 55.4759 14.5734C56.0386 14.5734 56.6012 14.5734 57.1638 14.5734C57.3889 14.5734 57.6139 14.5734 57.9515 14.5734C58.6267 14.5734 59.4144 14.5734 60.0895 14.5734C60.2021 14.5734 60.2021 14.5734 60.3146 14.5734C60.4271 14.5734 60.4271 14.4627 60.4271 14.4627C60.4271 14.352 60.4271 14.352 60.3146 14.352C60.2021 14.352 60.2021 14.352 60.0895 14.352C59.8645 14.352 59.5269 14.352 59.3018 14.2413C58.9643 14.1306 58.6267 13.9092 58.6267 13.5771C58.6267 13.4664 58.5142 13.245 58.5142 13.1343C58.5142 12.4701 58.4016 11.9166 58.4016 11.2524C58.4016 10.5882 58.4016 9.92402 58.4016 9.14912C58.4016 9.03842 58.4016 9.03842 58.4016 8.92772C58.4016 8.81702 58.5142 8.81702 58.6267 8.70632C58.7392 8.70632 58.7392 8.70632 58.8517 8.70632C58.9643 8.70632 59.1893 8.70632 59.3018 8.70632C59.8645 8.70632 60.5396 8.70632 61.1023 8.70632C61.3273 8.70632 61.4398 8.70632 61.5524 8.92772C61.6649 9.03842 61.7774 9.14912 61.7774 9.25982C62.5651 10.1454 63.3528 11.031 64.028 11.9166C64.4781 12.4701 65.0407 13.0236 65.6033 13.5771C66.2785 14.1306 67.0662 14.5734 67.9664 14.5734C68.7541 14.5734 69.5418 14.5734 70.442 14.5734H70.5545H70.667C70.7796 14.5734 70.7796 14.4627 70.667 14.352C70.667 14.6841 70.5545 14.5734 70.5545 14.5734ZM61.89 8.37422C61.4398 8.48492 60.9897 8.59562 60.5396 8.48492C60.0895 8.48492 59.6394 8.37422 59.1893 8.37422C59.0768 8.37422 58.8517 8.37422 58.7392 8.26352C58.5142 8.15282 58.4016 8.04212 58.4016 7.82072C58.4016 6.93512 58.4016 6.04953 58.4016 5.05323C58.4016 4.16763 58.4016 3.28203 58.4016 2.39643V2.28573C58.4016 2.17503 58.5142 2.06433 58.6267 2.06433C58.6267 2.06433 58.7392 2.06433 58.8517 2.06433C59.4144 1.95363 60.0895 1.95363 60.7647 2.06433C61.4398 2.17503 62.115 2.39643 62.6776 2.83923C63.2403 3.28203 63.6904 3.94623 63.8029 4.72113C63.9154 5.27463 63.9154 5.82813 63.8029 6.38163C63.6904 6.93512 63.4653 7.48862 63.1277 7.93142C62.6776 8.04212 62.3401 8.26352 61.89 8.37422Z" fill="white"/>
</svg>
