<?xml version="1.0" encoding="UTF-8"?>
<svg width="1000px" height="1000px" viewBox="0 0 1000 1000" version="1.1" xmlns="http://www.w3.org/2000/svg" xmlns:xlink="http://www.w3.org/1999/xlink">
    <title>icon-pescatarian</title>
    <g id="icon-pescatarian" stroke="none" stroke-width="1" fill="none" fill-rule="evenodd">
        <path d="M500,0 C776.142375,0 1000,223.857625 1000,500 C1000,776.142375 776.142375,1000 500,1000 C223.857625,1000 0,776.142375 0,500 C0,223.857625 223.857625,0 500,0 Z M496.335247,288.6 C493.242158,298.603053 486.975049,371.606372 431.481262,427.131804 C367.362302,491.292455 287.048416,489.148072 275.180488,491.682948 C332.935888,599.089581 472.780099,640.710359 594.161117,652.449553 L584.582519,662.035488 C545.679441,700.963862 545.679441,764.305809 584.582519,803.234182 L596.340692,815 L643.37671,767.933399 C667.890826,743.404453 676.951692,709.181963 670.571503,677.481037 C702.250722,683.865374 736.450974,674.798617 760.965091,650.26967 L808,603.203069 L796.241827,591.436142 C757.339857,552.507768 694.039069,552.507768 655.135991,591.436142 L645.582891,600.994344 C634.213849,482.620628 593.391725,347.622119 496.335247,288.6 Z M348.546341,613.243902 L395.949917,730.629268 L472.35122,664.070943 C429.361575,652.525675 386.604536,636.212816 348.546341,613.243902 Z M606.243902,355.546341 C629.356738,393.402385 646.026541,436.35955 657.683614,479.35122 L724.546341,403.044762 L606.243902,355.546341 Z M258.55454,265.347241 L256.041906,274.478527 C239.536482,334.448534 239.049237,400.533005 260.515701,459.17561 C262.030352,459.014726 263.403212,458.868936 264.762189,458.724654 L265.38889,458.65812 L265.687784,458.626389 L266.287344,458.562742 C270.296328,458.137181 274.597449,457.680872 282.420685,456.850719 C364.292238,449.850583 396.760471,411.585093 402.298453,408.073401 C456.463485,358.407089 460.577383,287.258785 465.014634,272.655149 C363.574659,229.326932 265.680498,264.214688 258.55454,265.347241 Z M378.928412,313.710508 L402.419157,337.195227 L378.928412,360.681053 L355.437667,337.195227 L378.928412,313.710508 Z" id="Combined-Shape" fill="#626265"></path>
    </g>
</svg>