<?xml version="1.0" encoding="UTF-8"?>
<svg width="1000px" height="1000px" viewBox="0 0 1000 1000" version="1.1" xmlns="http://www.w3.org/2000/svg" xmlns:xlink="http://www.w3.org/1999/xlink">
    <title>icon-milk</title>
    <g id="icon-milk" stroke="none" stroke-width="1" fill="none" fill-rule="evenodd">
        <path d="M1000,500 C1000,775.7013 775.702097,1000 499.998223,1000 C372.74142,1000 256.436051,952.212508 168.084699,873.640167 L331.369,710.343 L331.369689,824.966419 C331.369689,862.474503 363.572157,892.146934 401.080108,892.146934 L598.916338,892.146934 C636.424289,892.146934 668.071512,862.474503 668.071512,824.966419 L668.071512,512.772471 C668.071512,463.210006 664.949446,434.788788 649.36716,392.325681 L873.616139,168.058168 C952.202895,256.413154 1000,372.729719 1000,500 Z M499.998223,0 C626.748725,0 742.63429,47.4067733 830.855464,125.42046 L624.137883,332.149521 C601.262642,279.778907 589.226623,247.654357 583.389894,233.846293 L587.204654,233.846293 C597.731222,233.846293 605.883116,223.031847 605.883116,212.505242 L605.883116,156.055663 C605.883116,145.529058 597.731222,135.235212 587.204654,135.235212 L412.792681,135.235212 C402.266113,135.235212 393.557197,145.529058 393.557197,156.055663 L393.557197,212.505242 C393.557197,223.030959 402.266113,233.846293 412.792681,233.846293 L416.612771,233.846293 C410.228779,248.949027 396.148639,285.970271 368.852765,347.408193 C337.022533,419.086658 331.369689,447.725884 331.369689,512.772471 L331.369,624.941 L125.443738,830.882249 C47.4162158,742.657906 4.70663508e-11,626.762166 4.70663508e-11,500 C4.70663508e-11,224.2987 224.297903,0 499.998223,0 Z M524.458347,245.395443 C531.3887,261.347634 545.70693,293.01926 575.635112,348.031841 C579.947185,355.957878 583.675583,362.987497 586.89819,369.396192 L528.901,427.395 L394.320326,427.395443 C397.027259,402.016957 404.505751,384.516678 424.357781,348.028941 C454.300177,293.022885 468.619295,261.347634 475.54876,245.395443 L524.458347,245.395443 Z" id="Combined-Shape" fill="#626265" fill-rule="nonzero"></path>
    </g>
</svg>