<?xml version="1.0" encoding="UTF-8"?>
<svg width="1000px" height="1000px" viewBox="0 0 1000 1000" version="1.1" xmlns="http://www.w3.org/2000/svg" xmlns:xlink="http://www.w3.org/1999/xlink">
    <title>icon-low-sodium</title>
    <g id="icon-low-sodium" stroke="none" stroke-width="1" fill="none" fill-rule="evenodd">
        <path d="M999.669627,499.833037 C999.669627,775.445826 775.445826,999.669627 499.833037,999.669627 C372.705504,999.669627 256.510779,951.963581 168.210888,873.513167 L355.481,686.23 L334.962341,791.865594 C328.800946,823.497808 353.004451,853 385.289606,853 L617.709567,853 C650.022352,853 674.198227,823.483977 668.036833,791.865594 L600.016,441.677 L873.48995,168.184757 C951.954169,256.487854 999.669627,372.692963 999.669627,499.833037 Z M499.833037,0 C626.622155,0 742.536122,47.4511717 830.749009,125.52724 L624.603786,331.6863 C621.375515,327.042983 615.976493,323.998573 609.881697,323.998573 L396.136321,323.998573 C386.187727,323.998573 378.264264,332.045279 378.264264,341.732323 L378.264264,367.612899 C378.264264,377.450809 386.345422,385.346648 396.136321,385.346648 L570.948,385.346 L529.716,426.58 L405.915082,426.580599 L376.068,580.239 L125.550409,830.775184 C47.4605592,742.559053 0,626.634696 0,499.833037 C0,224.223801 224.223801,0 499.833037,0 Z M479.898,561.803 L467.183658,702.722777 C466.202808,713.49737 457.167938,721.60252 446.571997,721.60252 C445.936517,721.60252 445.314852,721.574857 444.679372,721.519532 C433.282173,720.482184 424.868968,710.399156 425.905077,698.988322 L434.156,607.549 L479.898,561.803 Z M562.491867,537.161952 L577.094096,698.988322 C578.130205,710.399156 569.717,720.482184 558.319802,721.519532 C557.684322,721.574857 557.062656,721.60252 556.427176,721.60252 C545.831235,721.60252 536.796365,713.49737 535.815515,702.722777 L521.213286,540.896407 C520.190992,529.485573 528.590382,519.402545 539.987581,518.365197 C551.398594,517.34168 561.469573,525.751118 562.491867,537.161952 Z M501.970827,148 C410.782095,148 349.885562,219.554812 385.624915,282.764622 L618.496285,282.447269 C654.275691,218.548942 591.962124,148 501.970827,148 Z M570.212179,198.707483 C581.661699,198.707483 590.929043,207.979708 590.929043,219.404415 L590.929043,223.392024 C590.929043,234.830528 581.661699,244.088955 570.212179,244.088955 C558.77647,244.088955 549.495314,234.830528 549.495314,223.392024 L549.495314,219.404415 C549.495314,207.979708 558.77647,198.707483 570.212179,198.707483 Z M433.729475,198.707483 C445.165184,198.707483 454.446339,207.979708 454.446339,219.404415 L454.446339,223.392024 C454.446339,234.830528 445.165184,244.088955 433.729475,244.088955 C422.279954,244.088955 413.01261,234.830528 413.01261,223.392024 L413.01261,219.404415 C413.01261,207.979708 422.279954,198.707483 433.729475,198.707483 Z M501.970827,167.206753 C513.406536,167.206753 522.687691,176.478978 522.687691,187.903685 L522.687691,191.891293 C522.687691,203.329798 513.406536,212.588225 501.970827,212.588225 C490.535118,212.588225 481.253962,203.329798 481.253962,191.891293 L481.253962,187.903685 C481.253962,176.478978 490.535118,167.206753 501.970827,167.206753 Z" id="Combined-Shape" fill="#626265" fill-rule="nonzero"></path>
    </g>
</svg>