<?xml version="1.0" encoding="UTF-8"?>
<svg width="1000px" height="1000px" viewBox="0 0 1000 1000" version="1.1" xmlns="http://www.w3.org/2000/svg" xmlns:xlink="http://www.w3.org/1999/xlink">
    <title>icon-diabetic</title>
    <g id="icon-diabetic" stroke="none" stroke-width="1" fill="none" fill-rule="evenodd">
        <path d="M1000,499.998223 C1000,775.702097 775.702097,1000 499.998223,1000 C374.775366,1000 260.156668,953.728041 172.342414,877.384075 L406.122,643.586 L419.255151,656.678288 L419.255,630.452 L458.248,591.456 L458.248811,687.101802 C479.353472,698.611453 503.09507,704.858548 527.805071,705.156894 L527.805,521.894 L565.744,483.952 L565.744849,699.88748 C590.998589,693.383305 614.156978,680.265772 633.085548,661.396645 L647.828632,646.70116 C675.768385,618.846549 691.156894,581.814084 691.156894,542.42379 C691.156894,503.033496 675.769689,466.001031 647.828632,438.147719 L629.658,420.034 L877.361446,172.316387 C953.718897,260.13402 1000,374.762994 1000,499.998223 Z M713.615922,619.792393 C704.477455,640.026823 691.660253,658.652773 675.491199,674.821898 L660.824252,689.488909 C644.655198,705.659331 626.029329,718.476589 605.792393,727.616392 C618.614784,781.00369 630.251573,828.98701 630.571971,828.630291 C651.666328,844.515337 682.642422,842.072781 702.880655,821.834459 C708.813849,815.902537 713.203426,809.041847 716.06625,801.782928 C735.105911,807.834189 757.359926,802.86087 773.109998,787.110729 C788.860071,771.361884 793.833368,749.106476 787.782134,730.066731 C795.041021,727.203895 801.901681,722.813001 807.833577,716.881079 C828.073108,696.64146 830.515653,665.666528 814.629379,644.572079 C814.986097,644.25168 767.002986,632.613543 713.615922,619.792393 Z M499.998223,0 C628.781601,0 746.348735,48.939452 835.078827,129.197196 L586.891,377.402 L565.744849,356.321712 L565.744,398.55 L527.805,436.492 L527.805071,326.953378 C506.699102,315.44243 482.958813,309.196632 458.248811,308.896989 L458.248,506.054 L419.255,545.05 L419.255151,313.11252 C394.001411,319.616695 370.843022,332.734228 351.914452,351.603355 L337.171368,366.29884 C309.231615,394.153451 293.843106,431.185916 293.843106,470.57621 C293.843106,509.966504 309.230311,546.998969 337.171368,574.852281 L363.355,600.954 L129.220647,835.104752 C48.9489854,746.371636 0,628.794144 0,499.998223 C0,224.297903 224.297903,0 499.998223,0 Z M282.118715,191.165744 C276.185483,197.097736 271.795877,203.958508 268.933035,211.217512 C249.89325,205.16618 227.639091,210.139558 211.888916,225.889885 C196.138742,241.638916 191.165412,263.894588 197.216686,282.934558 C189.957751,285.797428 183.097047,290.188374 177.165112,296.120366 C156.926747,316.358927 154.484186,347.335523 170.37186,368.427627 C170.01514,368.74803 217.998562,380.385009 271.385973,393.207607 C280.524499,372.972937 293.341784,354.346767 309.510943,338.177451 L324.177986,323.510266 C340.347144,307.34095 358.973134,294.523541 379.207607,285.384926 C366.385133,231.996997 354.748268,184.013108 354.427868,184.369832 C333.333375,168.484598 302.35708,170.927183 282.118715,191.165744 Z" id="Combined-Shape" fill="#626265" fill-rule="nonzero"></path>
    </g>
</svg>