<?xml version="1.0" encoding="UTF-8"?>
<svg width="1000px" height="1000px" viewBox="0 0 1000 1000" version="1.1" xmlns="http://www.w3.org/2000/svg" xmlns:xlink="http://www.w3.org/1999/xlink">
    <title>icon-peanuts</title>
    <g id="icon-peanuts" stroke="none" stroke-width="1" fill="none" fill-rule="evenodd">
        <path d="M873.490177,168.185753 C951.954648,256.489075 999.670515,372.694603 999.670515,499.834813 C999.670515,775.443162 775.446714,999.667851 499.837478,999.667851 C372.708306,999.667851 256.512509,951.961805 168.211939,873.51174 L404.391867,637.317126 C412.476811,649.908913 417.81827,662.740092 423.653432,676.757412 C435.322203,704.786443 448.547361,736.554977 486.15179,774.148639 C524.759317,812.743732 576.089764,834 630.688901,834 C685.288038,834 736.619864,812.743732 775.226011,774.14726 C854.924663,694.472808 854.924663,564.831643 775.226011,485.155812 C737.622961,447.56353 705.845328,434.342159 677.808269,422.67673 C663.76849,416.834352 650.917395,411.487427 638.305041,403.385981 Z M499.837478,0.00177619893 C626.623998,0.00177619893 742.536284,47.4524146 830.748445,125.52754 L595.830877,360.46205 C588.173067,348.258981 582.988145,335.803364 577.341221,322.23707 C565.673831,294.209419 552.450052,262.442264 514.848382,224.851361 C476.240855,186.256268 424.911789,165 370.311272,165 C315.710755,165 264.380309,186.256268 225.774161,224.851361 C146.07551,304.527192 146.07551,434.168357 225.772782,513.844188 C263.374452,551.435091 295.152085,564.655082 323.186384,576.319132 C336.775007,581.972457 349.250474,587.162599 361.473924,594.836127 L125.552037,830.774974 C47.4611083,742.559194 -1.0209078e-10,626.63532 -1.0209078e-10,499.834813 C-1.0209078e-10,224.225577 224.224689,0.00177619893 499.837478,0.00177619893 Z M580.449601,695 C617.699227,730.802972 660.524377,762.197981 698,777.236912 C676.973964,786.899673 653.931864,792 630.104285,792 C586.617679,792 545.732801,775.05086 514.983359,744.275117 C509.376141,738.663103 504.427622,733.217972 500,727.909384 C515.168016,725.306811 531.35991,720.14304 548.191213,712.451173 C558.966057,707.527385 569.758816,701.67125 580.449601,695 Z M671.564246,614 C698.647195,642.99315 720.439509,672.878144 733.719608,699.438619 C749.078366,730.155086 746.170986,742.75615 744.962208,743.962197 C743.753429,745.170988 731.155241,748.078398 700.437724,732.719479 C673.877527,719.439241 643.992847,697.648072 615,670.563467 C625.188864,662.310483 635.148595,653.350885 644.75022,643.749159 C654.351845,634.147433 663.311349,624.18897 671.564246,614 Z M728.928555,499 C734.243175,503.431467 739.695836,508.3855 745.314149,513.997222 C794.773242,563.396914 805.754488,636.889779 778.277214,697 C763.207162,659.533833 731.797069,616.72619 696,579.495797 C702.710225,568.745284 708.597719,557.889981 713.541006,547.053982 C721.198199,530.269834 726.333364,514.126829 728.928555,499 Z M472.911892,568.791808 C481.947758,579.171878 489.415941,588.763508 496.752905,598.432235 L498.236484,600.390408 C499.472042,602.02354 500.706623,603.660525 501.94712,605.305517 C514.669527,622.175299 528.714118,640.795287 551,665.017322 C522.983738,681.193938 497.192212,688.998616 478.083148,689 C476.854522,689 475.660291,688.96126 474.488074,688.897616 C469.647863,679.2528 465.778997,669.919285 461.963788,660.696455 C461.713554,660.091859 461.463103,659.486757 461.212205,658.881146 L460.457939,657.062784 L459.699615,655.241361 L458.935856,653.416866 C452.613713,638.364174 445.597218,622.997316 434.416022,607.290691 Z M540.637073,501.063261 C552.107521,511.2327 562.533957,519.450761 572.990161,527.445978 L574.813604,528.837943 C576.941798,530.460059 579.073805,532.077112 581.21866,533.703647 C581.425408,533.860441 581.632225,534.017289 581.839119,534.174203 L583.081496,535.116605 C584.532199,536.217273 585.98763,537.322607 587.45098,538.437481 L588.707294,539.395537 C604.227592,551.24318 620.734853,564.31257 642,584.362093 C634.130914,594.361302 625.269602,604.412734 615.341855,614.340481 C605.418231,624.264105 595.365425,633.132288 585.363467,641 C563.685751,618.009374 550.168346,600.580651 537.533331,583.948168 L536.587245,582.702151 C535.957473,581.872368 535.329452,581.044278 534.702272,580.217286 C533.540462,578.685384 532.383489,577.160023 531.226055,575.637913 L529.836572,573.81273 C521.398342,562.742606 512.823195,551.775039 502.064191,539.638654 Z M334.961676,449 C359.188731,471.287628 377.811515,485.331585 394.68383,498.052043 C397.31647,500.037005 399.928561,502.006776 402.537143,503.989609 L404.493188,505.479625 C412.847851,511.858426 421.210208,518.443778 430.140447,526.164619 L391.542551,564.765046 C375.599688,553.610965 360.006951,546.668351 344.738138,540.297645 L342.916295,539.539353 L341.097521,538.785121 L339.281808,538.033571 C330.065896,534.221286 320.736515,530.355346 311.097169,525.519481 C310.030282,506.112735 317.733732,478.8269 334.961676,449 Z M608.285503,433.40906 C624.631521,445.045513 640.610989,452.170309 656.250699,458.695839 L658.072323,459.454052 L659.890878,460.208213 C660.496552,460.459078 661.101717,460.709497 661.706373,460.9597 C670.924595,464.774435 680.257664,468.64007 689.902066,473.478305 C690.973052,492.8959 683.275518,520.174079 666.042895,550 C641.811508,527.708628 623.185497,513.661653 606.311252,500.939448 C605.324062,500.195146 604.33976,499.45298 603.357451,498.711461 L601.395221,497.228846 L599.436708,495.745309 C589.766085,488.408396 580.173122,480.940821 569.791671,471.905733 Z M222.723646,302 C237.794921,339.46695 269.203305,382.274109 305,419.505279 C298.324355,430.199485 292.464531,440.995724 287.537861,451.775418 C279.837955,468.617827 274.673855,484.821838 272.069028,500 C266.754464,495.569819 261.30324,490.617061 255.684986,485.005223 C206.22641,435.604499 195.245279,362.110097 222.723646,302 Z M415.636758,358 C437.311251,380.988502 450.82758,398.414997 463.461662,415.046342 L464.407678,416.292276 L464.879658,416.914265 L466.292512,418.776987 C467.919092,420.922075 469.536218,423.054314 471.15843,425.182741 L472.550483,427.006383 C480.298996,437.140374 488.257291,447.246409 497.998101,458.301725 L459.301832,496.99911 C448.57686,487.550029 438.745771,479.778316 428.916523,472.248378 L427.093429,470.85433 C424.662103,468.99839 422.227517,467.151808 419.776185,465.292876 L417.913445,463.88004 C417.706213,463.722816 417.498885,463.565497 417.291451,463.408068 L416.045505,462.462073 C399.414009,449.828282 381.98744,436.313358 359,414.640348 C366.870683,404.638202 375.73087,394.585207 385.657523,384.658647 C395.585551,374.730713 405.637266,365.869235 415.636758,358 Z M450,333.955903 C479.82317,316.724693 507.101349,309.02579 526.518944,310.098157 C531.355803,319.739774 535.221438,329.07006 539.036173,338.286882 C539.411478,339.193929 539.787271,340.102122 540.164329,341.011467 L540.920359,342.831695 C547.394445,358.387833 554.387854,374.280898 565.759441,390.536641 L527.162722,429.13458 C516.43235,416.722624 507.894506,405.406874 499.056425,393.684673 C486.33422,376.810458 472.289996,358.187247 450,333.955903 Z M255.036813,254.037473 C256.248344,252.828692 268.848,249.922677 299.561632,265.280101 C326.122029,278.560232 356.006935,300.352599 385,327.435615 C374.81106,335.68716 364.852626,344.646687 355.250928,354.249707 C345.649231,363.851356 336.689659,373.811111 328.436699,384 C301.353546,355.007082 279.561068,325.122328 266.28087,298.562066 C250.921996,267.845846 253.829397,255.244883 255.036813,254.037473 Z M370.877052,207 C414.367592,207 455.25617,223.949622 486.009772,254.727619 C491.618877,260.341173 496.570599,265.789216 501,271.099335 C485.881604,273.692327 469.746127,278.823143 452.968428,286.473851 C442.137482,291.41433 431.28862,297.295458 420.54312,304 C383.298392,268.202906 340.470745,236.79597 303,221.752474 C324.021048,212.096334 347.056964,207 370.877052,207 Z" id="Combined-Shape" fill="#626265" fill-rule="nonzero"></path>
    </g>
</svg>