<?xml version="1.0" encoding="UTF-8"?>
<svg width="1000px" height="1000px" viewBox="0 0 1000 1000" version="1.1" xmlns="http://www.w3.org/2000/svg" xmlns:xlink="http://www.w3.org/1999/xlink">
    <title>icon-shellfish</title>
    <g id="icon-shellfish" stroke="none" stroke-width="1" fill="none" fill-rule="evenodd">
        <path d="M376.82273,749.772498 C403.909707,783.449058 443.366581,804.008511 484.747578,805.151592 L484.747578,805.202095 L525.482267,805.202095 L525.482267,638.913305 L402.794,638.913 L513.601805,528.100147 C519.248207,528.112712 524.46605,528.119535 529.291281,528.122073 L531.337535,528.122903 L531.841644,528.123032 L535.288024,528.12309 L535.768713,528.122983 L538.129106,528.12204 C558.277069,528.111022 570.442898,528.02776 578.236101,528.018852 L580.785656,528.018996 C587.727291,528.029566 590.579136,528.134733 593.140467,528.488806 L593.488295,528.538646 C593.661666,528.564352 593.834489,528.591248 594.007968,528.619382 L594.371047,528.679856 C594.979113,528.783693 595.605214,528.902899 596.299893,529.039527 C611.166118,508.19721 628.970877,483.238178 646.835123,458.196979 L650.48909,453.075048 L652.359071,450.453824 L654.227316,447.835041 C674.454582,419.481836 694.246837,391.739773 709.397674,370.50349 C701.964192,365.009427 694.235783,359.979903 686.257216,355.431906 L873.780064,167.894857 C952.301664,256.20598 1000,372.532718 1000,500 C1000,776.142375 776.142375,1000 500,1000 C372.545286,1000 256.228918,952.311069 167.920978,873.803288 L291.943,749.772 L376.82273,749.772498 Z M500,0 C626.945382,0 742.841261,47.3085454 831.018997,125.256996 L625.059719,331.230506 C607.379036,326.995747 589.138201,324.812258 570.685611,324.812258 L498.075836,324.812258 L498.075,458.224 L461.073,495.228 L461.073454,324.812258 L354.654603,324.812258 L354.654603,287.859193 L576.668896,287.859193 L576.668896,250.906129 L354.654603,250.906129 L354.654603,213.953064 L632.172469,213.953064 L632.172469,177 L317.652221,177 L317.652221,250.906129 L243.647457,250.906129 L243.647457,324.812258 L206.645075,324.812258 C207.972227,333.083585 196.347312,409.374418 258.288066,473.681373 C292.061374,508.743672 337.796318,528.054112 387.06869,528.054112 L428.249,528.054 L317.398,638.913 L243.647457,638.913305 L243.647457,675.866369 L280.448,675.866 L125.280713,831.045825 C47.318142,742.86477 0,626.958257 0,500 C0,223.857625 223.857625,0 500,0 Z M587.149204,638.894828 C586.428549,638.904171 585.238807,638.909385 583.654668,638.912123 L583.079305,638.912989 L582.930433,638.913176 L582.156447,638.913939 L581.995805,638.914059 L576.119342,638.914052 L575.902864,638.913975 L573.42137,638.913055 L573.186963,638.912971 L569.761371,638.912017 L569.506863,638.911975 L566.088761,638.911956 L565.817807,638.912004 L563.050232,638.912986 C562.862349,638.913085 562.673817,638.913191 562.484649,638.913305 L562.484649,805.174996 C600.817884,804.815319 637.990477,795.589371 671.434463,778.487493 C660.902265,761.055537 648.674054,740.816672 636.338288,720.393465 L630.920654,711.423555 C630.654938,710.983591 630.389281,710.543719 630.123697,710.103965 L628.531206,707.467082 C613.413379,682.434219 598.638756,657.957781 587.149204,638.894828 Z M801.132746,601.960241 L638.858799,601.960241 C635.745666,611.446092 630.064566,619.700175 622.574051,625.99205 C632.098711,641.778749 644.283302,661.963424 656.911685,682.878996 L658.399291,685.342803 C658.647522,685.753926 658.89589,686.165274 659.144379,686.57682 L660.636624,689.048255 L661.38358,690.285341 L663.15911,693.225882 L665.823934,697.639141 L667.599544,700.579703 C668.659419,702.334934 669.718054,704.08809 670.774162,705.837039 L672.356267,708.457043 C683.415484,726.771258 694.125106,744.504344 702.995028,759.190603 C754.383936,722.15501 790.246645,666.370664 801.132746,601.960241 Z M354.685439,712.819434 L328.893,712.819 L348.190822,693.521094 C349.896183,700.096358 352.065556,706.547426 354.685439,712.819434 Z M737.459047,394.856791 C724.004549,413.718147 706.306183,438.52858 687.970751,464.231849 L686.250048,466.643992 C685.101816,468.253626 683.951534,469.866129 682.800086,471.480269 L681.072147,473.902551 C680.495949,474.710285 679.919569,475.518273 679.343117,476.326362 L675.788377,481.309507 L673.420372,484.629047 C657.248822,507.298798 641.318224,529.630579 628.068905,548.203386 C632.209471,553.168646 635.554487,558.845869 637.875769,565.007176 L804.77378,565.007176 C806.673236,506.990865 783.22236,441.539597 737.459047,394.856791 Z M391.656985,398.718386 L391.656985,435.671451 L354.654603,435.671451 L354.654603,398.718386 L391.656985,398.718386 Z M317.652221,287.859193 L317.652221,324.812258 L280.649839,324.812258 L280.649839,287.859193 L317.652221,287.859193 Z" id="Combined-Shape" fill="#626265"></path>
    </g>
</svg>