<?xml version="1.0" encoding="UTF-8"?>
<svg width="1000px" height="1000px" viewBox="0 0 1000 1000" version="1.1" xmlns="http://www.w3.org/2000/svg" xmlns:xlink="http://www.w3.org/1999/xlink">
    <title>icon-gluten-free</title>
    <g id="icon-gluten-free" stroke="none" stroke-width="1" fill="none" fill-rule="evenodd">
        <path d="M499.998223,0 C224.297903,0 0,224.2987 0,500 C0,775.7013 224.297903,1000 499.998223,1000 C775.702097,1000 1000,775.7013 1000,500 C1000,224.2987 775.702097,0 499.998223,0 Z M488.189704,623.200998 C475.751314,636.556257 462.457402,648.434113 441.111095,658.834566 C419.761236,669.238573 392.826937,674.438356 360.222027,674.438356 C318.767834,674.438356 283.87087,661.553059 257.633961,635.778022 C231.393498,610.006539 217.22896,576.546875 217.22896,535.401697 L217.22896,464.601856 C217.22896,423.612148 230.908435,390.191574 256.141461,364.341023 C281.370044,338.489584 314.391611,325.564309 354.140977,325.564309 C395.439701,325.564309 427.340116,335.619177 449.310962,355.723581 C471.280032,375.832427 482.631917,402.717959 483.097435,435.474901 L482.765176,437.323653 L418.719151,437.323653 C417.474512,417.778939 411.732828,404.616462 401.485215,394.136053 C391.238491,383.656532 376.253078,378.19023 356.537862,378.19023 C335.729921,378.19023 319.543402,386.104952 306.815395,402.160046 C294.082947,418.21603 288.300398,438.768185 288.300398,464.051939 L288.300398,535.251558 C288.300398,561.000832 294.314818,581.903016 307.513672,597.958999 C320.708973,614.014094 338.197877,622.038087 360.555175,622.038087 C376.391668,622.038087 389.579861,620.414988 399.209153,617.161681 C408.834002,613.911928 413.564695,609.887494 421.560231,605.087489 L421.560231,543.043681 L358.484331,543.043681 L358.484331,495.958686 L488.189704,495.958686 L488.189704,623.200998 L488.189704,623.200998 Z M782.246888,382.242205 L613.452224,382.242205 L613.452224,476.412194 L758.260278,476.412194 L758.260278,527.050774 L613.452224,527.050774 L613.452224,668.305758 L546.822751,668.305758 L546.822751,331.603626 L782.246888,331.603626 L782.246888,382.242205 Z" id="Shape" fill="#626265" fill-rule="nonzero"></path>
    </g>
</svg>