<?xml version="1.0" encoding="UTF-8"?>
<svg width="1000px" height="1000px" viewBox="0 0 1000 1000" version="1.1" xmlns="http://www.w3.org/2000/svg" xmlns:xlink="http://www.w3.org/1999/xlink">
    <title>icon-latex</title>
    <g id="icon-latex" stroke="none" stroke-width="1" fill="none" fill-rule="evenodd">
        <path d="M877.987439,172.687637 C954.002247,260.39461 1000,374.825629 1000,500 C1000,776.142375 776.142375,1000 500,1000 C374.838504,1000 260.41815,954.011709 172.714702,878.010894 L262.557121,788.160607 C267.095213,789.492237 270.969636,791.017446 274.655317,792.468601 C282.731823,795.648011 289.111936,798.160095 303.337865,798.160095 C317.562629,798.160095 323.942742,795.648011 332.019248,792.468601 C341.688452,788.66146 352.649758,784.346546 373.509793,784.346546 C393.627073,784.346546 404.537884,788.358756 413.963434,792.058969 L414.659023,792.332424 C414.77454,792.377882 414.88986,792.423277 415.004997,792.468601 C423.083834,795.648011 429.463947,798.160095 443.692206,798.160095 C454.248656,798.160095 460.484951,796.777273 466.300147,794.765049 L467.056583,794.499077 C468.817523,793.870437 470.555161,793.186532 472.379415,792.468601 C477.568791,790.425858 483.129836,788.236374 490.393099,786.645504 L489.021771,782.532069 C476.203288,744.092644 477.854242,702.377145 493.670538,665.06973 L493.792874,664.77974 L494.374353,663.400483 C512.481433,620.209658 522.038211,574.657494 522.808161,527.892355 L558.22,492.476 L558.220003,521.50341 C558.220003,575.633751 547.483368,628.349079 526.30785,678.186633 L526.185246,678.475459 C519.199135,694.918719 515.710166,712.452062 515.751827,730.015686 C518.638658,730.998625 521.267061,732.022325 523.740165,732.993618 C531.835553,736.173028 538.229661,738.685112 552.486792,738.685112 C566.742755,738.685112 573.136862,736.173028 581.231083,732.993618 C590.922662,729.186477 601.906842,724.871563 622.81263,724.871563 C642.725128,724.871563 653.637376,728.785317 663.003436,732.446807 L663.703108,732.720881 C663.935443,732.812037 664.166928,732.902972 664.39768,732.993618 C672.494236,736.173028 678.888343,738.685112 693.147809,738.685112 C703.727413,738.685112 709.977387,737.30229 715.805337,735.290066 L716.563432,735.024094 C718.328235,734.395455 720.069684,733.711549 721.897939,732.993618 C727.099865,730.950875 732.673107,728.761391 739.952301,727.171686 L738.576797,723.057086 C725.7302,684.617661 727.384774,642.902162 743.235761,605.595912 L743.353695,605.318732 L743.930824,603.952895 C762.881715,558.854346 772.489152,511.193816 772.489152,462.269707 L772.489,278.192 Z M500,0 C629.236855,0 747.021701,49.0318796 835.766855,129.507957 L689.387,275.898 L689.387944,225.606253 C689.387944,212.388989 678.605769,201.634894 665.352826,201.634894 L664.955988,201.638112 C651.885341,201.850222 641.318876,212.521162 641.318876,225.606253 L641.318,323.971 L606.289,359.002 L606.28907,225.606253 C606.28907,212.388989 595.506896,201.634894 582.255121,201.634894 L581.858282,201.638112 C568.787612,201.850222 558.220003,212.521162 558.220003,225.606253 L558.22,407.074 L522.858,442.439 L522.858742,326.52305 C522.858742,313.304621 512.100165,302.55169 498.877392,302.55169 C485.654618,302.55169 474.896041,313.305785 474.896041,326.52305 L474.896041,428.664821 L439.942899,428.664821 L439.942899,285.081236 C439.942899,271.862807 429.184322,261.109877 415.961548,261.109877 C402.73761,261.109877 391.979033,271.863972 391.979033,285.081236 L391.979033,428.664821 L357.025891,428.664821 L357.025891,285.081236 C357.025891,271.862807 346.267314,261.109877 333.04454,261.109877 C319.821767,261.109877 309.06319,271.863972 309.06319,285.081236 L309.06319,528.499482 L274.110048,528.499482 L274.110048,428.664821 C274.110048,415.446392 263.351471,404.693462 250.128697,404.693462 L226.145016,404.693462 L226.161328,525.363162 C226.168318,573.750765 235.567218,620.951621 254.097044,665.654369 C258.838876,677.09314 262.254379,688.943452 264.335554,700.980171 L129.531435,835.792744 C49.041416,747.044608 0,629.249422 0,500 C0,223.857625 223.857625,0 500,0 Z M724.417,326.268 L724.417749,369.188674 L689.387944,369.188674 L689.387,361.3 L724.417,326.268 Z" id="Combined-Shape" fill="#626265"></path>
    </g>
</svg>