<?xml version="1.0" encoding="UTF-8"?>
<svg width="1000px" height="1000px" viewBox="0 0 1000 1000" version="1.1" xmlns="http://www.w3.org/2000/svg" xmlns:xlink="http://www.w3.org/1999/xlink">
    <title>icon-vegan</title>
    <g id="icon-vegan" stroke="none" stroke-width="1" fill="none" fill-rule="evenodd">
        <path d="M499.833037,0 C775.445826,0 999.669627,224.223801 999.669627,499.833037 C999.669627,775.445826 775.445826,999.669627 499.833037,999.669627 C224.223801,999.669627 0,775.445826 0,499.833037 C0,224.223801 224.223801,0 499.833037,0 Z M490.92056,574 C477.465683,574 465.728834,577.050134 455.710014,583.150401 C445.691194,589.250668 438.02336,598.058155 432.706513,609.572861 C427.498174,620.852573 424.840858,634.158606 424.734565,649.490961 L424.731243,650.451872 L424.731243,661.17246 C424.875919,676.477273 427.751357,689.796791 433.357556,701.131016 C438.963755,712.465241 446.92094,721.110294 457.229113,727.066176 C467.537285,733.022059 479.527317,736 493.199209,736 C506.220058,736 518.083498,734.06885 528.78953,730.206551 C539.257649,726.43008 547.408951,721.152433 553.243435,714.37361 L553.63765,713.909091 L553.63765,650.993316 L491.463095,650.993316 L491.463095,674.925134 L521.085527,674.925134 L521.085527,702.105615 C515.877188,707.303476 507.160452,709.902406 494.935322,709.902406 C482.782529,709.902406 473.559428,705.679144 467.266017,697.23262 C461.074114,688.922331 457.928227,676.698621 457.828357,660.56149 L457.825902,659.764706 L457.825902,649.69385 C457.89824,633.30615 460.827931,620.96123 466.614975,612.659091 C472.402019,604.356952 480.829402,600.205882 491.897124,600.205882 C500.57769,600.205882 507.395551,602.299465 512.350708,606.486631 C517.19575,610.580749 520.363692,616.987023 521.854534,625.705455 L521.953584,626.303476 L553.63765,626.303476 C551.684523,609.266043 545.427281,596.289439 534.865926,587.373663 C524.304571,578.457888 509.656115,574 490.92056,574 Z M181.132856,576.165775 L145,576.165775 L199.796074,733.834225 L233.758789,733.834225 L288.771876,576.165775 L252.530513,576.165775 L216.723178,694.741979 L181.132856,576.165775 Z M409.323238,576.165775 L303.637346,576.165775 L303.637346,733.834225 L409.540253,733.834225 L409.540253,707.736631 L336.189469,707.736631 L336.189469,665.504011 L398.689545,665.504011 L398.689545,640.05615 L336.189469,640.05615 L336.189469,602.479947 L409.323238,602.479947 L409.323238,576.165775 Z M655.634302,576.165775 L625.469335,576.165775 L566.658499,733.834225 L601.272257,733.834225 L612.122965,701.347594 L669.197687,701.347594 L680.156902,733.834225 L714.770659,733.834225 L655.634302,576.165775 Z M762.079744,576.165775 L729.527621,576.165775 L729.527621,733.834225 L762.079744,733.834225 L762.079744,630.093583 L825.447877,733.834225 L858,733.834225 L858,576.165775 L825.556384,576.165775 L825.556384,680.122995 L762.079744,576.165775 Z M640.551819,616.016043 L660.408614,675.033422 L620.912038,675.033422 L640.551819,616.016043 Z M673.031428,262.969693 C664.641684,254.573409 570.434969,250.60999 514.771624,306.319385 C509.262131,311.833954 504.374276,317.759051 500.027998,323.95752 C495.648754,317.769892 490.73641,311.845737 485.214202,306.319385 C429.551328,250.60999 333.97607,255.942624 326.954398,262.969693 C318.565126,271.365977 314.604545,365.652371 370.266949,421.362238 C401.046451,452.167466 444.49887,463.8296 478.1266,467.177933 C478.763778,467.308963 479.460294,467.432451 480.174234,467.553583 C479.035037,465.849252 477.902905,464.107685 476.800912,462.307202 C474.022855,457.838516 471.332862,453.12521 468.676777,448.274746 C466.022105,443.439365 463.420649,438.48568 460.831437,433.599396 C460.163649,432.391847 459.539186,431.158846 458.895415,429.931501 C458.241755,428.733378 457.587152,427.531956 456.930666,426.328178 C455.648304,423.889513 454.300482,421.588477 452.984684,419.245492 C452.358338,418.041243 451.64063,416.968023 450.970958,415.829759 C450.271145,414.727317 449.663636,413.53108 448.952521,412.467758 C448.245645,411.397837 447.543478,410.327917 446.872864,409.237258 L446.365193,408.42327 L446.238511,408.219655 L446.174935,408.117376 L446.143382,408.066944 C446.261265,408.220846 446.335378,408.317509 446.379994,408.375598 L446.408,408.412 L446.395733,408.394462 C446.391766,408.389211 446.387963,408.384174 446.384546,408.379642 L446.381,408.375 L446.385,408.379 L446.067561,407.940156 L444.79038,406.151927 C443.141629,403.777835 441.506065,401.423067 439.889338,399.096108 C438.364915,396.935528 436.868277,394.781076 435.436629,392.610127 C433.912205,390.505636 432.407091,388.422354 430.981564,386.321634 C429.574404,384.179907 428.035382,382.346431 426.651769,380.353645 C425.950544,379.366679 425.259208,378.393852 424.578233,377.435166 C423.861938,376.518899 423.156474,375.617243 422.462784,374.729728 C421.077758,372.904264 419.739355,371.141016 418.454639,369.447997 C417.114823,367.811065 415.7816,366.266986 414.553867,364.704525 C413.935998,363.918346 413.334141,363.152433 412.748766,362.40726 C412.116768,361.72713 411.498899,361.063496 410.917292,360.382895 C409.749368,359.02829 408.607346,357.797175 407.593889,356.552862 C407.075858,355.940132 406.57902,355.352383 406.104315,354.790557 C405.592878,354.287647 405.121941,353.768241 404.663248,353.288426 C400.992765,349.449438 398.877786,346.828368 398.877786,346.828368 L398.896568,346.828754 C399.165286,346.834742 402.307192,346.919984 407.654169,347.724368 C408.353981,347.829475 409.103713,347.926569 409.871811,348.069853 C410.617776,348.260271 411.398118,348.459644 412.212369,348.667029 C413.858293,349.070959 415.592284,349.621945 417.496753,350.171988 C418.451813,350.443946 419.419118,350.763508 420.42033,351.094853 C421.3801,351.490771 422.367655,351.898001 423.38064,352.316542 C425.41603,353.163995 427.512642,354.152375 429.75336,355.158666 C431.922496,356.242255 434.061963,357.536529 436.329525,358.856726 C437.460245,359.518003 438.604151,360.212744 439.748528,360.934352 C440.84016,361.706391 441.947804,362.490685 443.070989,363.285349 C444.186639,364.101693 445.317358,364.928879 446.462206,365.766905 C447.032982,366.192516 447.607054,366.620484 448.183952,367.050809 C448.72553,367.507057 449.270404,367.966133 449.817162,368.427566 C452.008903,370.274711 454.224662,372.202924 456.437595,374.217863 C458.587422,376.303972 460.73207,378.47822 462.892729,380.699602 C464.011675,381.844935 464.909752,382.876207 465.901545,383.959796 C466.85896,385.048098 467.821085,386.142057 468.786506,387.240257 L470.22098,388.904525 L470.57795,389.323067 L471.235378,390.187016 L471.983697,391.184352 C472.989619,392.510205 473.968697,393.864338 474.946833,395.223655 C475.932033,396.581088 476.77454,397.97387 477.662256,399.374193 C478.517478,400.777344 479.465474,402.167298 480.22227,403.590717 L481.394859,405.728282 C482.565505,407.866658 483.714032,410.008944 484.693817,412.168463 C486.117931,415.036039 487.324,417.914455 488.494279,420.769776 C489.699407,423.630753 490.663886,426.455437 491.697593,429.266453 C492.628635,432.058616 493.551672,434.835696 494.358858,437.548204 C495.985474,442.969449 497.346953,448.223371 498.537011,453.153018 C499.065402,455.439443 499.578724,457.660353 500.078859,459.822818 C500.578523,457.660353 501.091845,455.439443 501.620707,453.153018 C502.810294,448.223371 504.172244,442.969449 505.79886,437.548204 C506.605575,434.835696 507.529083,432.058616 508.460125,429.266453 C509.494774,426.455437 510.458782,423.630753 511.66391,420.769776 C512.834189,417.913983 514.040729,415.036039 515.464372,412.168463 C516.444156,410.00859 517.592684,407.866481 518.763131,405.728216 L519.935448,403.590717 C520.692244,402.167298 521.640711,400.777344 522.495933,399.374193 C523.383649,397.974341 524.226156,396.581088 525.211356,395.223655 C526.189492,393.864338 527.16857,392.510205 528.174492,391.184352 L528.92234,390.187016 L529.580239,389.323067 L529.936738,388.904525 L531.371212,387.240257 C532.337104,386.142057 533.299228,385.048098 534.256173,383.959796 C535.247966,382.876207 536.146043,381.844935 537.264989,380.699602 C539.426119,378.47822 541.569825,376.303972 543.720123,374.217863 C545.933998,372.202924 548.148815,370.274711 550.340085,368.427566 C550.887314,367.966133 551.431717,367.507057 551.973295,367.050809 C552.550664,366.620484 553.124736,366.192045 553.695512,365.766905 C554.840359,364.928879 555.971079,364.101693 557.086729,363.285349 C558.209443,362.490685 559.317558,361.706391 560.408719,360.934352 C561.553096,360.212744 562.697002,359.518003 563.827722,358.856726 C566.095755,357.536058 568.234751,356.242255 570.404358,355.158666 C572.644605,354.152375 574.742159,353.163523 576.777078,352.316542 C577.790063,351.898001 578.777618,351.490771 579.737388,351.094853 C580.7386,350.763036 581.705905,350.443946 582.660965,350.171988 C584.565905,349.621945 586.299424,349.070959 587.945349,348.667029 C588.759129,348.459644 589.539942,348.260271 590.285906,348.069853 C591.054005,347.926569 591.803737,347.829946 592.503078,347.724368 C597.850055,346.919984 600.991961,346.834742 601.260679,346.828754 L601.279461,346.828368 C601.279461,346.828368 599.164012,349.449438 595.493999,353.288426 C595.035307,353.768241 594.564369,354.287647 594.052932,354.790557 C593.578227,355.352383 593.080918,355.940132 592.563358,356.552862 C591.549902,357.797175 590.40835,359.02829 589.239955,360.382895 C588.658348,361.063025 588.039537,361.726658 587.408481,362.40726 C586.823106,363.151962 586.221249,363.917874 585.602909,364.704525 C584.375176,366.266515 583.042424,367.811065 581.702608,369.447997 C580.417892,371.141016 579.079489,372.904264 577.694463,374.729728 C577.000773,375.617243 576.294838,376.518899 575.579014,377.435166 C574.897568,378.393852 574.206232,379.366679 573.505478,380.353645 C572.121865,382.346902 570.582372,384.179907 569.175212,386.321634 C567.749215,388.422354 566.245042,390.505636 564.720148,392.610127 C563.288499,394.781076 561.791861,396.935528 560.266967,399.096108 C558.650711,401.423067 557.014676,403.777835 555.365925,406.151927 L554.089215,407.940156 L553.771,408.379 L553.775,408.375 C553.769099,408.384174 553.765306,408.389211 553.761348,408.394462 L553.748902,408.412224 C553.787292,408.362263 553.866164,408.259321 554.013394,408.066944 L553.98137,408.117376 L553.918265,408.219655 L553.791583,408.42327 L553.283913,409.237258 C552.613298,410.327917 551.911131,411.398309 551.204255,412.467758 C550.494082,413.53108 549.886102,414.727317 549.185818,415.829759 C548.516146,416.968023 547.79938,418.041243 547.172092,419.245492 C545.855823,421.588477 544.508001,423.889513 543.225639,426.328178 C542.569153,427.531956 541.914551,428.733378 541.261361,429.931501 C540.61759,431.158846 539.993128,432.391847 539.324868,433.599396 C536.735656,438.485209 534.1342,443.438894 531.479528,448.274746 C528.823914,453.12521 526.133921,457.838516 523.355864,462.307202 C522.13755,464.296689 520.885328,466.221132 519.623688,468.092314 C553.471346,464.985303 598.049304,453.057338 629.717936,421.361767 C685.38081,365.652371 680.052628,269.997233 673.031428,262.969693 Z" id="Combined-Shape" fill="#626265" fill-rule="nonzero"></path>
    </g>
</svg>