<?xml version="1.0" encoding="UTF-8"?>
<svg width="1000px" height="1000px" viewBox="0 0 1000 1000" version="1.1" xmlns="http://www.w3.org/2000/svg" xmlns:xlink="http://www.w3.org/1999/xlink">
    <title>icon-medicine</title>
    <g id="icon-medicine" stroke="none" stroke-width="1" fill="none" fill-rule="evenodd">
        <path d="M873.779171,167.893853 C952.301302,256.205098 1000,372.532235 1000,500 C1000,776.142375 776.142375,1000 500,1000 C372.544802,1000 256.228036,952.310707 167.919974,873.802395 L340.830784,700.87679 C334.217243,737.877744 345.207405,777.373894 373.80127,805.927049 C420.246561,852.306216 495.758607,852.459789 542.203898,805.927049 L658.778503,689.518412 L505.372,536.329 L527.194,514.505 L680.403038,667.670207 L797.394981,550.558207 C843.547766,504.111955 843.547766,429.154144 797.394981,382.707892 C768.548982,354.248287 728.8524,343.342969 691.690822,349.991939 Z M500,0 C626.945382,0 742.841261,47.3085454 831.018997,125.256996 L125.280713,831.045825 C47.318142,742.86477 0,626.958257 0,500 C0,223.857625 223.857625,0 500,0 Z M546.510084,684.757637 C552.661778,678.768274 562.350696,678.921848 568.194806,685.064784 C574.192708,691.20772 574.038915,700.882844 567.887221,706.718633 L514.675066,758.933589 L514.521274,759.087162 C508.36958,765.076525 498.680662,764.922951 492.836552,758.780015 C486.992443,752.790653 487.146235,742.961955 493.297929,737.126166 L546.356291,684.91121 Z M449.582309,293.066584 L283.888706,458.500075 C304.466039,474.445472 329.650238,483.031455 355.755811,483.031455 C421.019742,483.031455 473.998697,430.288989 473.998697,364.974191 C473.998697,338.9096 465.399215,313.611615 449.582309,293.066584 Z M427.803746,271.302177 C380.693356,235.275461 314.247756,239.568006 272.354803,281.420319 C230.308396,323.272632 226.011683,389.807078 262.226837,436.871767 Z" id="Combined-Shape" fill="#626265"></path>
    </g>
</svg>