<?xml version="1.0" encoding="UTF-8"?>
<svg width="1000px" height="1000px" viewBox="0 0 1000 1000" version="1.1" xmlns="http://www.w3.org/2000/svg" xmlns:xlink="http://www.w3.org/1999/xlink">
    <title>icon-pollen</title>
    <g id="icon-pollen" stroke="none" stroke-width="1" fill="none" fill-rule="evenodd">
        <path d="M874.250445,168.424633 C952.492113,256.670958 1000,372.787448 1000,500 C1000,776.142375 776.142375,1000 500,1000 C372.800015,1000 256.6939,952.5015 168.450788,874.273633 L307.84301,734.871869 C332.063553,754.495795 365.121308,753.738761 396.087443,741.428154 C392.593207,726.617088 390.175554,711.150057 390.175554,694.682184 C390.175554,678.089408 392.254301,662.024712 396.093944,646.613094 L430.707557,611.999423 C452.288017,631.16128 480.686471,642.814991 511.754187,642.814991 C579.100778,642.814991 633.904298,588.053305 633.904298,520.758123 C633.904298,489.677397 622.214074,461.27021 602.997099,439.696857 L637.442466,405.249245 C652.931034,401.372532 669.080509,399.272768 685.763842,399.272768 C702.270293,399.272768 717.768903,401.696612 732.609213,405.203153 C744.988473,374.151663 745.625425,341.066879 725.834237,316.851512 Z M500,0 C627.199985,0 743.3061,47.4985004 831.549212,125.726367 L665.913814,291.373117 C653.229833,291.905955 640.141144,295.017673 627.401122,300.095407 C629.336132,308.276394 630.942119,316.65811 631.99282,325.298494 L598.72271,358.571758 C599.070256,354.56621 599.258085,350.509543 599.258085,346.395696 C599.258085,278.321534 561.016814,223.827052 512.198369,223.827052 C463.379923,223.827052 425.138653,278.321534 425.138653,346.395696 C425.138653,360.581282 427.372025,374.086959 430.686098,387.161333 C454.509119,372.583759 482.246344,363.740315 512.198369,363.740315 C535.948099,363.740315 558.305316,369.300464 578.422803,378.870653 L551.841604,405.453723 C539.278836,401.07947 525.788874,398.701255 511.754187,398.701255 C444.407595,398.701255 389.604075,453.462941 389.604075,520.758123 C389.604075,534.817651 391.99619,548.330105 396.395034,560.910396 L369.814594,587.493831 C360.202622,567.361143 354.616427,544.980005 354.616427,521.201966 C354.616427,491.272805 363.466626,463.556753 378.055337,439.751918 C364.970975,436.440375 351.45498,434.208708 337.258557,434.208708 C269.132391,434.208708 214.596279,472.420786 214.596279,521.201966 C214.596279,569.983146 269.132391,608.195225 337.258557,608.195225 C341.453298,608.195225 345.588631,608.000383 349.670977,607.640413 L316.372361,640.940316 C307.636749,639.88991 299.165821,638.27128 290.89916,636.316425 C285.781063,649.164699 282.670121,662.360812 282.180174,675.133637 L125.749555,831.575367 C47.5078866,743.329042 0,627.212552 0,500 C0,223.857625 223.857625,0 500,0 Z M593.71064,654.354913 C569.887619,668.932487 542.150393,677.775931 512.198369,677.775931 C482.246344,677.775931 454.509119,668.932487 430.686098,654.354913 C427.372025,667.429287 425.138653,680.934964 425.138653,695.12055 C425.138653,763.194712 463.379923,817.689194 512.198369,817.689194 C561.016814,817.689194 599.258085,763.194712 599.258085,695.12055 C599.258085,680.934964 597.024713,667.429287 593.71064,654.354913 Z M623.243925,632.162755 C629.727592,651.881873 633.332349,672.801347 633.332349,694.635931 C633.332349,711.127713 630.904323,726.6159 627.397433,741.442786 C660.750166,754.722367 696.478495,754.497665 721.072159,729.922406 C745.707766,705.327355 745.882528,669.629895 732.585475,636.318009 C717.751683,639.820111 702.258455,642.244106 685.760928,642.244106 C663.911026,642.244106 642.976877,638.641877 623.243925,632.162755 Z M686.249816,434.208708 C672.053393,434.208708 658.537398,436.440375 645.453036,439.751918 C660.041747,463.556753 668.891946,491.272805 668.891946,521.201966 C668.891946,551.131127 660.041747,578.847179 645.453036,602.652014 C658.537398,605.963558 672.053393,608.195225 686.249816,608.195225 C754.375982,608.195225 808.912094,569.983146 808.912094,521.201966 C808.912094,472.420786 754.375982,434.208708 686.249816,434.208708 Z M476.854155,573.068209 C486.491217,573.068209 494.304171,580.875199 494.304171,590.504905 C494.304171,600.13461 486.491217,607.9416 476.854155,607.9416 C467.217092,607.9416 459.404139,600.13461 459.404139,590.504905 C459.404139,585.891083 461.197677,581.695684 464.126057,578.576902 L464.912016,577.791234 C468.033698,574.862303 472.234331,573.068209 476.854155,573.068209 Z M546.654218,573.068209 C556.291281,573.068209 564.104234,580.875199 564.104234,590.504905 C564.104234,600.13461 556.291281,607.9416 546.654218,607.9416 C537.017156,607.9416 529.204202,600.13461 529.204202,590.504905 C529.204202,580.875199 537.017156,573.068209 546.654218,573.068209 Z M581.55425,503.321428 C591.191312,503.321428 599.004266,511.128417 599.004266,520.758123 C599.004266,530.387829 591.191312,538.194818 581.55425,538.194818 C571.917188,538.194818 564.104234,530.387829 564.104234,520.758123 C564.104234,511.128417 571.917188,503.321428 581.55425,503.321428 Z M528.088846,514.611062 C528.809773,516.522811 529.204202,518.594458 529.204202,520.758123 C529.204202,530.387829 521.391249,538.194818 511.754187,538.194818 C509.594052,538.194818 507.525565,537.802575 505.616171,537.085481 Z M441.954123,503.321428 C445.385076,503.321428 448.584828,504.310946 451.283136,506.019947 L427.21231,530.09202 C425.497324,527.39326 424.504107,524.191547 424.504107,520.758123 C424.504107,511.128417 432.317061,503.321428 441.954123,503.321428 Z M476.854155,433.574646 C486.491217,433.574646 494.304171,441.381636 494.304171,451.011341 C494.304171,460.641047 486.491217,468.448037 476.854155,468.448037 C467.217092,468.448037 459.404139,460.641047 459.404139,451.011341 C459.404139,441.381636 467.217092,433.574646 476.854155,433.574646 Z M396.11094,300.073003 C362.758207,286.794531 327.029878,287.01807 302.436214,311.593431 C277.800607,336.188585 277.625845,371.886195 290.922898,405.19822 C305.75669,401.696103 321.249918,399.272098 337.747445,399.272098 C359.597347,399.272098 380.531496,402.874342 400.264448,409.353491 C393.780781,389.63429 390.176024,368.71473 390.176024,346.880054 C390.176024,330.388204 392.60405,314.899951 396.11094,300.073003 Z" id="Combined-Shape" fill="#626265"></path>
    </g>
</svg>