<?xml version="1.0" encoding="UTF-8"?>
<svg width="1000px" height="1000px" viewBox="0 0 1000 1000" version="1.1" xmlns="http://www.w3.org/2000/svg" xmlns:xlink="http://www.w3.org/1999/xlink">
    <title>icon-fish</title>
    <g id="icon-fish" stroke="none" stroke-width="1" fill="none" fill-rule="evenodd">
        <path d="M1000,500 C1000,776.142375 776.142375,1000 500,1000 C372.545286,1000 256.228918,952.311069 167.920978,873.803288 L358.887,682.824 L390.79588,761.77892 L475.327291,688.194122 C444.748479,679.988167 414.276035,669.603682 385.223,656.485898 L413.05405,628.655286 C475.086446,654.99806 544.993398,669.054051 610.099374,675.345877 L599.501486,685.943787 C556.458606,728.981776 556.458606,799.010647 599.501486,842.048635 L612.510884,855.056555 L664.552157,803.021197 C691.674899,775.902763 701.699962,738.067451 694.640836,703.019901 C729.691143,710.078225 767.530755,700.054302 794.653498,672.935868 L846.693543,620.900509 L833.684145,607.891363 C790.642491,564.853374 720.605662,564.853374 677.562781,607.891363 L666.993105,618.458611 C660.716698,553.158957 646.327171,483.283348 620.143588,421.549582 L648.096923,393.594483 C661.446319,422.704418 672.066498,453.331175 680.381505,483.973787 L754.359311,399.611761 L674.226,367.462 L873.780064,167.894857 C952.301664,256.20598 1000,372.532718 1000,500 Z M500,0 C626.945382,0 742.841261,47.3085454 831.018997,125.256996 L591.19698,365.095266 C567.872184,327.362874 538.486157,295.339217 501.863537,273.08522 C498.441302,284.144282 491.50729,364.854462 430.10823,426.241639 C359.166164,497.175643 270.305817,494.80488 257.174985,497.60736 C280.245012,540.477505 315.153018,573.867952 356.663935,599.646569 L125.280713,831.045825 C47.318142,742.86477 0,626.958257 0,500 C0,223.857625 223.857625,0 500,0 Z M238.779816,247.377699 L235.999805,257.472963 C217.737986,323.773922 217.198891,396.83484 240.949671,461.668266 C242.417934,461.512428 243.765773,461.3694 245.088365,461.22908 L245.747999,461.159099 L246.735343,461.054359 L247.351851,460.988964 C251.78279,460.518971 256.540542,460.014602 265.185635,459.097939 C355.769404,451.358809 391.692687,409.053683 397.819984,405.171266 C457.748891,350.261749 462.300563,271.602414 467.209996,255.457092 C354.975465,207.554774 246.66407,246.125583 238.779816,247.377699 Z M371.963061,300.84661 L397.953532,326.810579 L371.963061,352.775773 L345.97259,326.810579 L371.963061,300.84661 Z" id="Combined-Shape" fill="#626265"></path>
    </g>
</svg>