<?xml version="1.0" encoding="UTF-8"?>
<svg width="1000px" height="1000px" viewBox="0 0 1000 1000" version="1.1" xmlns="http://www.w3.org/2000/svg" xmlns:xlink="http://www.w3.org/1999/xlink">
    <title>icon-pets</title>
    <g id="icon-pets" stroke="none" stroke-width="1" fill="none" fill-rule="evenodd">
        <path d="M874.250445,168.424633 C952.492113,256.670958 1000,372.787448 1000,500 C1000,776.142375 776.142375,1000 500,1000 C372.800015,1000 256.6939,952.5015 168.450788,874.273633 L327.237351,715.476853 C328.401313,717.03424 329.620244,718.559886 330.893297,720.051744 C343.347887,734.623505 359.804955,744.583729 378.484648,748.85741 C397.16434,753.131092 416.313107,751.305782 433.857376,743.587706 L435.032255,743.065562 C479.177879,724.031445 529.623132,724.206956 573.654776,743.587706 C585.013396,748.585369 597.047134,751.112721 609.190468,751.112721 C615.792585,751.112721 622.434155,750.362413 629.014353,748.861797 C647.694045,744.592504 664.151114,734.632282 676.610087,720.056131 C689.060293,705.484369 696.337526,687.665663 697.652688,668.530627 C698.967851,649.39559 694.198194,630.751984 683.861017,614.605015 L621.55738,517.328302 C608.879353,497.53278 591.830437,481.647856 572.097476,470.597876 L587.84732,454.848258 C593.459687,458.915035 599.714439,462.170142 606.54054,464.435715 C613.69479,466.807438 620.993615,467.940787 628.261773,467.940787 C662.179839,467.940787 695.23484,443.282758 707.847875,405.387718 C715.111652,383.574004 714.634117,360.50879 706.502893,340.445424 C706.094404,339.436964 705.669181,338.441778 705.227544,337.460177 Z M500,0 C627.199985,0 743.3061,47.4985004 831.549212,125.726367 L660.334233,296.952876 C640.701333,291.002139 619.634319,293.961771 600.796987,305.355319 C582.260776,316.566299 568.057422,334.756793 560.802408,356.570508 C555.856441,371.434695 554.6488,386.546349 556.646443,400.648322 L504.445579,452.851775 C504.216565,452.850672 503.987461,452.85012 503.758268,452.85012 C455.851279,452.85012 411.815252,476.956491 385.963538,517.328302 L323.659903,614.609403 C317.410363,624.366059 313.195774,635.040057 311.129477,646.182483 L125.749555,831.575367 C47.5078866,743.329042 0,627.212552 0,500 C0,223.857625 223.857625,0 500,0 Z M784.469194,453.156962 C752.352611,429.500889 704.320312,439.754187 677.389059,476.025665 C650.484128,512.31464 654.691177,561.100914 686.759503,584.774485 C698.455011,593.413674 712.273783,597.542989 726.417188,597.542989 C751.067246,597.542989 776.713134,584.997572 793.857186,561.927653 C820.75773,525.638678 816.555069,476.852403 784.482355,453.170085 Z M338.63534,368.63357 C320.007675,358.526543 299.542677,356.880704 281.033409,364.002459 C243.795618,378.294119 226.707104,424.228784 242.944921,466.420917 C255.91588,500.003036 286.168294,521.201966 316.753973,521.201966 C324.563735,521.201966 332.395423,519.818762 339.964008,516.907903 C358.503971,509.799279 372.588731,494.886053 379.622341,474.912746 C386.318303,455.906807 385.770172,434.44962 378.074421,414.489445 C370.374284,394.542401 356.368455,378.259101 338.63534,368.63357 Z M460.668847,248.682269 C414.136077,248.682269 376.278608,291.693265 376.278608,344.563316 C376.278608,397.420256 414.136077,440.422512 460.668847,440.422512 C507.206003,440.422512 545.067853,397.420256 545.067853,344.563316 C545.067853,291.693265 507.206003,248.682269 460.668847,248.682269 Z" id="Combined-Shape" fill="#626265"></path>
    </g>
</svg>