<?xml version="1.0" encoding="UTF-8"?>
<svg width="1000px" height="1000px" viewBox="0 0 1000 1000" version="1.1" xmlns="http://www.w3.org/2000/svg" xmlns:xlink="http://www.w3.org/1999/xlink">
    <title>icon-wheat</title>
    <g id="icon-wheat" stroke="none" stroke-width="1" fill="none" fill-rule="evenodd">
        <path d="M1000,500 C1000,776.142375 776.142375,1000 500,1000 C373.054618,1000 257.158739,952.691455 168.981003,874.743004 L292.482903,751.231951 C292.998947,751.76105 293.51917,752.287576 294.043607,752.811468 C342.034074,800.749845 416.799722,817.48631 484.988197,816.715736 L484.988197,879.902767 L527.140561,879.902767 L527.140561,816.71714 C594.991816,817.431569 669.779946,800.961788 717.98258,752.811468 C791.677558,679.195728 782.189061,553.590836 781.008795,540.792859 L781.008795,366.509895 L738.856431,366.509895 L738.856431,520.074396 C671.735816,519.518572 597.10927,535.922385 548.988131,583.992699 C540.696761,592.275312 533.457795,601.219018 527.141966,610.583803 L527.141966,559.053627 C546.47929,541.537464 596.069418,491.91386 616.528662,427.170027 L874.720165,168.955168 C952.682213,257.136101 1000,373.04222 1000,500 Z M500,0 C627.454714,0 743.771082,47.6889311 832.079022,126.196712 L622.112614,336.178682 C604.277439,245.797697 523.225415,178.944721 519.367665,175.809084 L506.065784,165 L492.763903,175.810487 C488.427829,179.334914 386.566641,263.356906 386.566641,370.807703 C386.566641,428.418688 415.843606,479.289199 443.672534,514.630286 L409.084293,549.220548 C368.179716,527.701208 320.43214,519.683339 273.173971,520.074396 L273.173971,366.509895 L231.021607,366.509895 L231.021607,540.799877 C230.087543,550.922053 223.999104,631.15139 257.598492,700.716893 L126.219936,832.105143 C47.698336,743.79402 -9.09494702e-13,627.467282 -9.09494702e-13,500 C-9.09494702e-13,223.857625 223.857625,0 500,0 Z M458.320323,585.383933 L459.227249,584.479945 C459.269355,585.324279 459.020615,585.718455 458.320323,585.383933 Z" id="Combined-Shape" fill="#626265"></path>
    </g>
</svg>