<?xml version="1.0" encoding="UTF-8"?>
<svg width="1000px" height="1000px" viewBox="0 0 1000 1000" version="1.1" xmlns="http://www.w3.org/2000/svg" xmlns:xlink="http://www.w3.org/1999/xlink">
    <title>icon-bugs</title>
    <g id="icon-bugs" stroke="none" stroke-width="1" fill="none" fill-rule="evenodd">
        <path d="M874.250445,168.424633 C952.492113,256.670958 1000,372.787448 1000,500 C1000,776.142375 776.142375,1000 500,1000 C372.800015,1000 256.6939,952.5015 168.450788,874.273633 L336.646856,706.064511 C363.869046,780.074477 435.158592,833.015312 518.596913,833.015312 C625.430281,833.015312 712.347048,746.224549 712.347048,639.546059 L712.347048,629.268789 C748.135483,637.747188 774.846681,669.905014 774.846681,708.197257 L774.846681,733.160868 C774.846681,743.500255 783.242174,751.883576 793.596572,751.883576 C803.95097,751.883576 812.346462,743.500255 812.346462,733.160868 L812.346462,708.197257 C812.346462,649.183138 768.947112,600.106545 712.345778,591.102049 L712.345778,552.17342 L824.846388,552.17342 C835.200786,552.17342 843.596279,543.790099 843.596279,533.450712 C843.596279,523.111324 835.202056,514.726736 824.847658,514.726736 L712.347048,514.726736 L712.347048,475.798106 C768.948382,466.794878 812.347731,417.717017 812.347731,358.702899 L812.347731,333.739288 C812.347731,323.399901 803.952239,315.015312 793.597841,315.015312 C783.243443,315.015312 774.847951,323.399901 774.847951,333.739288 L774.847951,358.702899 C774.847951,396.995141 748.136753,429.152968 712.348317,437.631367 L712.348317,421.113194 L712.344122,420.597971 C712.06763,403.628099 698.157701,389.90868 681.0985,389.90868 L652.782,389.908 Z M500,0 C627.200468,0 743.306983,47.4988614 831.550218,125.727259 L659.349269,297.939788 C650.903297,269.041702 626.810208,246.752991 596.902876,240.886255 L610.889558,209.424248 C615.102858,199.948522 610.833601,188.850491 601.353993,184.639622 C591.873113,180.42621 580.774571,184.695564 576.562542,194.172562 L556.476558,239.35295 L480.714728,239.35295 L460.628743,194.17129 C456.416715,184.695564 445.315629,180.42621 435.837292,184.638351 C426.358956,188.84922 422.089699,199.94725 426.301728,209.422977 L440.28841,240.884984 C402.897753,248.220948 374.596279,281.221346 374.596279,320.719858 L374.596279,352.015312 L605.276,352.015 L567.386,389.908 L537.348073,389.90868 L537.348,419.948 L499.848,457.451 L499.848293,389.907413 L356.097865,389.907413 C338.86635,389.907413 324.848049,403.905391 324.848049,421.111926 L324.848049,437.630099 C289.059613,429.1517 262.348415,396.993873 262.348415,358.701631 L262.348415,333.73802 C262.348415,323.398633 253.952923,315.015312 243.598525,315.015312 C233.244127,315.015312 224.848635,323.398633 224.848635,333.73802 L224.848635,358.701631 C224.848635,417.71575 268.247984,466.792343 324.849318,475.796839 L324.849318,514.725468 L212.346169,514.725468 C201.991771,514.725468 193.596279,523.108789 193.596279,533.448176 C193.596279,543.787563 201.991771,552.170884 212.346169,552.170884 L324.846779,552.170884 L324.846779,591.099514 L323.15273,591.381603 C267.381798,601.085293 224.846095,649.770744 224.846095,708.194721 L224.846,732.472 L125.750447,831.576372 C47.5082476,743.329925 0,627.213035 0,500 C0,223.857625 223.857625,0 500,0 Z M324.84551,629.266253 L324.845,632.466 L263.651748,693.663218 C269.41717,661.969808 293.692233,636.646568 324.84551,629.266253 Z M537.348,505.35 L537.348073,608.341545 C537.348073,618.680932 528.952581,627.064253 518.598183,627.064253 L518.261202,627.06129 C508.061024,626.881776 499.848293,618.568547 499.848293,608.341545 L499.848,542.853 L537.348,505.35 Z" id="Combined-Shape" fill="#626265"></path>
    </g>
</svg>