<?xml version="1.0" encoding="UTF-8"?>
<svg width="1000px" height="1000px" viewBox="0 0 1000 1000" version="1.1" xmlns="http://www.w3.org/2000/svg" xmlns:xlink="http://www.w3.org/1999/xlink">
    <title>icon-soybeans</title>
    <g id="icon-soybeans" stroke="none" stroke-width="1" fill="none" fill-rule="evenodd">
        <path d="M1000,500 C1000,776.142375 776.142375,1000 500,1000 C372.545286,1000 256.228918,952.311069 167.920978,873.803288 L382.291586,659.41701 C451.977035,719.021032 539.029207,757.214584 628.447035,779.13029 C712.044846,799.618585 775.358694,800.487936 778.012405,800.513958 L796.130314,800.69729 C796.106641,800.575463 799.981864,648.329046 725.803425,496.533272 C705.701497,455.398056 681.869083,419.11416 654.432263,387.257966 L873.780064,167.894857 C952.301664,256.20598 1000,372.532718 1000,500 Z M500,0 C626.945382,0 742.841261,47.3085454 831.018997,125.256996 L612.153679,344.136659 C544.560064,283.575392 459.999761,243.234523 359.793727,218.675695 C276.195917,198.187399 212.882069,197.318048 210.228358,197.29321 L192.110449,197.109877 L192.293912,215.21485 C192.319952,217.866666 193.189924,281.135308 213.692859,364.67343 C236.308342,456.813851 276.250389,546.459668 339.162646,617.147288 L125.280713,831.045825 C47.318142,742.86477 0,626.958257 0,500 C0,223.857625 223.857625,0 500,0 Z M627.515514,565.952424 C681.454969,569.465312 706.030793,636.035122 666.203825,673.520116 C628.241083,709.210817 564.694058,685.116193 561.207068,632.280945 C517.979069,640.871459 477.858049,615.401193 464.493749,577.208173 L495.668657,546.028063 C495.630917,546.616137 495.602825,547.208738 495.584576,547.805796 C494.760394,574.856543 516.204599,597.398636 543.509657,598.211325 C587.224629,599.479825 611.200846,547.491321 580.996283,515.718736 C569.780622,503.919902 555.157302,499.330623 541.187464,500.508224 L572.418983,469.275149 C610.674552,482.601104 636.165503,522.682787 627.515514,565.952424 Z M604.765099,608.30888 C594.066197,618.379069 593.554658,635.267066 603.629389,645.95631 C613.698254,656.643209 630.602495,657.149708 641.299051,647.091243 C651.995606,637.022227 652.503625,620.136574 642.428894,609.444986 C632.360029,598.756914 615.465174,598.25276 604.765099,608.30888 Z M433.23121,371.694474 C476.494052,363.117778 516.392153,388.536679 529.780914,426.518085 L498.306341,457.996779 C500.06806,431.741337 480.337484,405.276245 449.406684,405.276245 C437.549573,405.276245 425.674775,409.545357 416.293791,418.143675 C414.9331,419.596564 414.169038,420.335381 413.270557,421.171999 C396.114534,439.889869 396.048504,469.039548 413.730409,487.808086 C424.302422,499.02761 438.96927,504.145951 453.271414,503.031406 L421.765904,534.539942 C383.714223,521.201991 358.215779,481.361932 366.83991,438.036006 C312.59271,434.427312 288.811104,367.587826 328.232086,330.481325 L328.240371,330.474228 C366.73575,294.282024 429.774995,319.661158 433.23121,371.694474 Z M371.396135,349.194895 C364.728734,349.194895 358.045819,351.59089 352.817631,356.425101 C341.94238,366.498133 341.425647,383.38738 351.670795,394.077296 C361.690394,404.535001 378.339207,405.219906 389.246679,395.830606 C390.111878,394.943982 391.010491,394.079641 391.923425,393.22351 C407.024427,376.048104 394.591818,349.194895 371.396135,349.194895 Z" id="Combined-Shape" fill="#626265"></path>
    </g>
</svg>