<?xml version="1.0" encoding="UTF-8"?>
<svg width="1000px" height="1000px" viewBox="0 0 1000 1000" version="1.1" xmlns="http://www.w3.org/2000/svg" xmlns:xlink="http://www.w3.org/1999/xlink">
    <title>icon-halal</title>
    <g id="icon-halal" stroke="none" stroke-width="1" fill="none" fill-rule="evenodd">
        <path d="M499.833037,0 C775.445826,0 999.669627,224.223801 999.669627,499.833037 C999.669627,775.445826 775.445826,999.669627 499.833037,999.669627 C224.223801,999.669627 0,775.445826 0,499.833037 C0,224.223801 224.223801,0 499.833037,0 Z M558.311589,235.497481 C548.971453,235.197468 541.180116,242.55342 540.896056,251.892162 C540.753531,256.532479 540.109742,270.07828 539.44508,285.163819 L539.391872,286.373807 C539.258785,289.406291 539.125376,292.492508 538.995488,295.573531 L538.909148,297.633587 C538.29476,312.382398 537.781032,326.709611 537.791696,334.118212 C537.791696,334.147536 537.787187,334.174605 537.787187,334.203929 C536.439033,438.213611 485.651056,462.78082 455.504713,468.167515 C429.497518,472.796283 408.195335,471.302986 392.202352,463.721461 C383.766246,459.726555 373.679891,463.324452 369.682772,471.769924 C365.687909,480.213139 369.285991,490.300786 377.724352,494.30246 C392.218133,501.171172 409.074565,504.613424 428.093003,504.613424 C438.567122,504.613424 449.695027,503.569019 461.440648,501.477952 C504.834068,493.724992 536.815524,466.651661 554.832991,424.205497 C565.649784,446.128985 581.624731,464.535782 602.403885,478.674728 C631.75892,498.644749 669.099175,508.910599 709.115447,508.910599 C733.210879,508.910599 758.289246,505.184125 783.15795,497.611623 L783.913187,497.377026 C800.237571,492.233951 812.312341,478.354414 815.42121,461.156691 C818.55037,443.864227 812.059843,426.533415 798.483619,415.924694 C779.841672,401.357158 719.332559,370.819019 680.16621,381.727753 C665.426696,385.830935 654.855636,395.275697 649.600542,409.042447 C646.266228,417.769885 650.637583,427.550752 659.360003,430.884728 C668.084678,434.22096 677.855412,429.84709 681.189725,421.119652 C682.199713,418.473675 683.874761,415.818675 689.231305,414.327634 C711.502897,408.124363 760.586518,429.244809 777.668394,442.591992 C783.153441,446.877889 782.483873,453.275153 782.145707,455.133879 C781.721873,457.47082 780.058098,463.11918 773.781743,465.09746 L773.258713,465.259873 C717.684565,482.182396 659.499778,476.599452 621.420068,450.692336 C592.23637,430.835102 575.830826,400.982706 572.667849,361.965259 C571.868854,352.128372 571.946991,335.110638 572.360672,317.343065 L572.402425,315.593244 L572.468861,312.962418 L572.542987,310.202927 L572.630965,307.114601 C573.354157,282.436449 574.522318,258.678427 574.696843,252.923033 C574.983157,243.584291 567.647216,235.781703 558.311589,235.497481 Z M343.982181,224.706045 C334.642045,224.706045 327.073897,232.280803 327.073897,241.624057 L327.073897,403.477549 C327.073897,451.19311 267.694258,475.076831 233.580104,443.095021 C222.693423,432.890076 216.385506,418.406003 216.387761,403.475293 C216.387761,394.835828 218.234145,373.880051 235.379145,365.915051 C243.849068,361.978794 247.526056,351.918216 243.592062,343.445675 C239.660323,334.973135 229.610039,331.296287 221.135607,335.228033 C196.986068,346.450314 182.571193,371.964932 182.573447,403.477549 C182.573447,407.862698 182.895832,412.247846 183.54511,416.583369 C190.051417,460.078449 227.957536,490.679749 270.65208,491.595578 C317.675145,492.603891 358.874997,454.163912 360.818323,407.001007 C360.852883,406.14473 360.87543,318.409241 360.885086,271.094499 L360.88585,267.299255 C360.885973,266.682757 360.886093,266.074498 360.886211,265.474807 L360.886888,261.982075 C360.886996,261.41796 360.887102,260.863065 360.887205,260.317719 L360.887795,257.162842 C360.887888,256.656999 360.887979,256.161358 360.888067,255.676248 L360.888798,251.603407 C360.888872,251.184423 360.888944,250.776951 360.889013,250.381318 L360.88999,244.609229 C360.890029,244.367445 360.890066,244.139465 360.890101,243.925614 L360.890465,241.624057 C360.890465,232.280803 353.322317,224.706045 343.982181,224.706045 Z M420.342246,267.67554 C411.624335,264.411491 401.975341,268.823709 398.663571,277.515055 C395.351802,286.213169 399.727666,295.969223 408.398234,299.332523 C410.285198,300.065637 454.598429,317.843084 452.869275,367.83017 C452.544636,377.168912 459.849015,385.000824 469.180133,385.323394 C469.380778,385.330161 469.579169,385.332417 469.777559,385.332417 C478.842654,385.332417 486.349932,378.138879 486.663299,369.000896 C488.732873,309.271291 444.185181,276.603738 420.342246,267.67554 Z M209.549208,734 L209.549208,666.285714 L273.020163,666.285714 L273.020163,734 L305.569371,734 L305.569371,576 L273.020163,576 L273.020163,640.024725 L209.549208,640.024725 L209.549208,576 L177,576 L177,734 L209.549208,734 Z M355.261162,734 L366.110898,701.445055 L423.180509,701.445055 L434.138742,734 L468.7494,734 L409.618339,576 L379.456073,576 L320.650504,734 L355.261162,734 Z M414.392223,675.075549 L374.899184,675.075549 L394.537206,615.934066 L414.392223,675.075549 Z M585.167067,734 L585.167067,707.847527 L516.054249,707.847527 L516.054249,576 L483.505041,576 L483.505041,734 L585.167067,734 Z M625.094095,734 L635.943831,701.445055 L693.013442,701.445055 L703.971675,734 L738.582333,734 L679.451272,576 L649.289006,576 L590.483437,734 L625.094095,734 Z M684.225156,675.075549 L644.732117,675.075549 L664.370139,615.934066 L684.225156,675.075549 Z M855,734 L855,707.847527 L785.887182,707.847527 L785.887182,576 L753.337974,576 L753.337974,734 L855,734 Z" id="Combined-Shape" fill="#626265" fill-rule="nonzero"></path>
    </g>
</svg>