<?xml version="1.0" encoding="UTF-8"?>
<svg width="1000px" height="1000px" viewBox="0 0 1000 1000" version="1.1" xmlns="http://www.w3.org/2000/svg" xmlns:xlink="http://www.w3.org/1999/xlink">
    <title>icon-vegetarian</title>
    <g id="icon-vegetarian" stroke="none" stroke-width="1" fill="none" fill-rule="evenodd">
        <path d="M499.998223,0 C224.297903,0 0,224.297903 0,499.998223 C0,775.702097 224.297903,1000 499.998223,1000 C775.702097,1000 1000,775.702097 1000,499.998223 C1000,224.297903 775.702097,0 499.998223,0 Z M745.28974,609.840018 C685.548867,669.58178 601.455365,692.064341 537.603898,697.920627 C539.983902,694.393707 542.346139,690.766399 544.644412,687.016492 C549.885042,678.593638 554.959543,669.709709 559.969191,660.567257 C564.977062,651.452345 569.884544,642.115335 574.768929,632.906253 C576.029559,630.63019 577.207568,628.306154 578.422001,625.992779 C579.654202,623.734484 580.889068,621.469971 582.127488,619.201015 C584.546582,614.60447 587.089163,610.267335 589.572221,605.851134 C590.75556,603.58129 592.107695,601.558419 593.370989,599.41295 C594.69203,597.334999 595.838945,595.080257 597.178642,593.076043 C598.512119,591.060279 599.836713,589.042739 601.101785,586.986997 L602.059473,585.452743 L602.29845,585.068957 L602.417495,584.876176 L602.477906,584.781118 C601.422495,586.159015 602.229156,585.102716 602.012388,585.38256 L602.620937,584.54214 L605.02937,581.171577 C608.139634,576.696742 611.225911,572.25833 614.274876,567.872334 C617.151492,563.799941 619.974805,559.739097 622.67552,555.647159 C625.552136,551.680484 628.389663,547.753787 631.079717,543.79422 C633.734235,539.757362 636.638392,536.302402 639.248491,532.545388 C640.570419,530.685093 641.87458,528.85145 643.160085,527.044459 C644.510442,525.317423 645.842143,523.617927 647.150746,521.945083 C649.76351,518.504337 652.288323,515.180859 654.711859,511.989751 C657.239337,508.904363 659.753489,505.993099 662.069529,503.048965 C663.235989,501.566237 664.371355,500.122598 665.475628,498.718937 C666.666074,497.436098 667.833423,496.185241 668.930588,494.90329 C671.134691,492.350048 673.288156,490.029566 675.199977,487.684208 C676.176321,486.529297 677.114464,485.421471 678.009964,484.362507 C678.974759,483.414592 679.863152,482.435583 680.728447,481.531199 C687.651693,474.295238 691.642354,469.354885 691.642354,469.354885 C691.642354,469.354885 685.642148,469.45705 675.086263,471.04372 C673.766999,471.24272 672.352678,471.42484 670.903709,471.694912 C669.496494,472.053822 668.023539,472.429613 666.488396,472.820506 C663.383462,473.581858 660.113288,474.62039 656.519738,475.657144 C654.718077,476.169747 652.893318,476.771189 651.004595,477.396618 C649.19405,478.142868 647.33109,478.910439 645.420157,479.699332 C641.581411,481.295774 637.624508,483.159623 633.398423,485.056342 C629.305597,487.098757 625.270516,489.537396 620.992015,492.026673 C618.858984,493.273088 616.701077,494.58258 614.542282,495.942709 C612.483876,497.397897 610.393487,498.876183 608.275558,500.374013 C606.170955,501.91271 604.037924,503.47184 601.87824,505.051402 C600.801508,505.852733 599.718557,506.660282 598.629387,507.471385 C597.607735,508.331349 596.580753,509.196644 595.548441,510.066381 C591.414748,513.547993 587.236636,517.182408 583.060301,520.980288 C579.003898,524.912316 574.959933,529.010472 570.883098,533.197468 C568.772276,535.356263 567.078111,537.300067 565.207155,539.342483 C563.401941,541.393782 561.586954,543.455742 559.76486,545.525698 L557.058815,548.662613 L556.386302,549.451506 L555.145217,551.07993 L553.734449,552.95977 C551.836841,555.458819 549.989872,558.011172 548.14468,560.573298 C546.286162,563.131869 544.696827,565.757959 543.022206,568.396486 C541.408885,571.041232 539.619661,573.661103 538.192014,576.34405 C535.252321,581.715274 532.222013,587.083832 529.757611,592.511913 C527.071999,597.916896 524.795936,603.341424 522.58828,608.724197 C520.314882,614.116742 518.496342,619.440881 516.544542,624.739257 C514.788189,630.002097 513.046051,635.236508 511.524234,640.34921 C508.455724,650.567505 505.886492,660.470422 503.642411,669.762124 C502.644746,674.071718 501.676398,678.257826 500.733813,682.333773 C499.790339,678.257826 498.821991,674.071718 497.825214,669.762124 C495.580245,660.470422 493.011901,650.567505 489.943392,640.34921 C488.420686,635.236508 486.679436,630.002097 484.923083,624.739257 C482.97306,619.440881 481.153632,614.116742 478.880234,608.724197 C476.672577,603.342312 474.397403,597.916896 471.710903,592.511913 C469.246501,587.084721 466.216192,581.715274 463.275611,576.34405 C461.847964,573.661103 460.059629,571.041232 458.446307,568.396486 C456.771687,565.757071 455.182352,563.131869 453.323833,560.573298 C451.478641,558.011172 449.631672,555.458819 447.734065,552.95977 L446.322408,551.07993 L445.082212,549.451506 L444.40881,548.662613 L441.702765,545.525698 C439.881559,543.455742 438.066573,541.393782 436.26047,539.342483 C434.389514,537.300067 432.695349,535.356263 430.584527,533.197468 C426.50858,529.010472 422.462839,524.912316 418.407325,520.980288 C414.232766,517.182408 410.052877,513.547993 405.918296,510.066381 C404.886872,509.196644 403.859001,508.331349 402.837349,507.471385 C401.749068,506.660282 400.666117,505.853621 399.589385,505.051402 C397.429701,503.47184 395.29667,501.91271 393.192067,500.374013 C391.07325,498.876183 388.98375,497.397897 386.924455,495.942709 C384.76566,494.58258 382.607753,493.273088 380.474722,492.026673 C376.19711,489.538284 372.16114,487.098757 368.069202,485.056342 C363.842229,483.159623 359.887103,481.296663 356.047469,479.699332 C354.136535,478.910439 352.273575,478.142868 350.46303,477.396618 C348.574307,476.772077 346.749548,476.169747 344.947887,475.657144 C341.355226,474.62039 338.084163,473.581858 334.979229,472.820506 C333.443198,472.429613 331.971131,472.053822 330.563916,471.694912 C329.114947,471.42484 327.700626,471.241831 326.380474,471.04372 C315.824589,469.45705 309.824382,469.354885 309.824382,469.354885 C309.824382,469.354885 313.814155,474.295238 320.73829,481.531199 C321.603585,482.435583 322.491978,483.414592 323.456773,484.362507 C324.352273,485.421471 325.289527,486.529297 326.26676,487.684208 C328.178581,490.029566 330.332934,492.350048 332.536149,494.90329 C333.633314,496.186129 334.798886,497.436986 335.991109,498.718937 C337.095381,500.123487 338.230748,501.567125 339.396319,503.048965 C341.71236,505.993987 344.2274,508.904363 346.754878,511.989751 C349.178414,515.180859 351.703227,518.504337 354.315991,521.945083 C355.624594,523.617927 356.955406,525.317423 358.306652,527.044459 C359.591268,528.85145 360.895429,530.685093 362.218246,532.545388 C364.828345,536.301513 367.731613,539.757362 370.386131,543.79422 C373.075297,547.753787 375.914601,551.680484 378.790329,555.647159 C381.491043,559.739097 384.314356,563.799941 387.190084,567.872334 C390.239937,572.25833 393.325326,576.696742 396.43559,581.171577 L398.844911,584.54214 L399.453461,585.38256 C399.237581,585.102716 400.044242,586.159015 398.987943,584.781118 L399.047465,584.876176 L399.167398,585.068957 L399.406376,585.452743 L400.364063,586.986997 C401.629135,589.042739 402.953729,591.059391 404.287207,593.076043 C405.62868,595.080257 406.774707,597.334999 408.094859,599.41295 C409.358154,601.558419 410.712065,603.58129 411.893627,605.851134 C414.375797,610.267335 416.918378,614.60447 419.337472,619.201015 C420.575892,621.469971 421.810758,623.734484 423.043848,625.992779 C424.258281,628.306154 425.43629,630.63019 426.696031,632.906253 C431.580416,642.116223 436.487898,651.453233 441.495769,660.567257 C446.506306,669.709709 451.580806,678.593638 456.821437,687.016492 C458.900276,690.410153 461.035973,693.692765 463.184995,696.905194 C461.838192,696.676877 460.524258,696.444118 459.322263,696.197145 C395.885674,689.886001 313.915432,667.904494 255.851844,609.840907 C150.848238,504.835523 158.319622,327.118728 174.145455,311.292896 C187.391394,298.047845 367.688082,287.996567 472.692577,393.001063 C483.109873,403.41747 492.3767,414.583681 500.637866,426.246504 C508.836845,414.563248 518.057475,403.39526 528.450785,393.001063 C633.456168,287.996567 811.171186,295.467064 826.997907,311.292896 C840.242958,324.538835 850.294236,504.835523 745.28974,609.840018 Z" id="Shape" fill="#626265" fill-rule="nonzero"></path>
    </g>
</svg>