<?xml version="1.0" encoding="UTF-8"?>
<svg width="1000px" height="1000px" viewBox="0 0 1000 1000" version="1.1" xmlns="http://www.w3.org/2000/svg" xmlns:xlink="http://www.w3.org/1999/xlink">
    <title>icon-eggs</title>
    <g id="icon-eggs" stroke="none" stroke-width="1" fill="none" fill-rule="evenodd">
        <path d="M873.489057,168.185528 C951.953807,256.488748 999.669627,372.694257 999.669627,499.834813 C999.669627,775.44405 775.445826,999.667851 499.833037,999.667851 C372.705986,999.667851 256.51166,951.962167 168.211893,873.512633 L281.864118,759.852319 C303.045768,768.145314 326.09663,772.422253 350.220306,772.422253 C387.563393,772.422253 422.328683,762.163473 451.576469,742.635042 C451.587808,742.652047 451.599147,742.669997 451.611432,742.687002 C451.835382,742.524509 452.043269,742.338398 452.266275,742.17496 C453.317993,741.464526 454.316795,740.668122 455.354339,739.93407 C502.042884,703.912613 529.219361,641.069439 529.219361,560.474864 C529.219361,546.03263 528.024155,531.116131 525.718481,515.982596 L565.591586,476.107255 C565.885692,477.726526 566.170182,479.34667 566.445183,480.967643 C566.563135,481.66443 566.679199,482.359332 566.793376,483.056119 C567.544494,487.62248 568.220122,492.192613 568.812712,496.765574 C568.900468,497.438789 568.979731,498.110119 569.063713,498.782391 C569.638374,503.404382 570.139434,508.026373 570.546131,512.645535 C570.596143,513.217862 570.635775,513.789247 570.683899,514.361574 C571.079274,519.09671 571.398215,523.828075 571.610529,528.551897 C571.627514,528.922448 571.635063,529.292999 571.65016,529.66355 C571.856812,534.601406 571.977595,539.531718 571.977595,544.446944 C571.977595,550.321077 571.82756,556.120724 571.58222,561.870397 C571.504844,563.697696 571.366132,565.491051 571.263278,567.305149 C571.041529,571.230353 570.790528,575.138585 570.455544,579.002501 C570.277201,581.060805 570.058283,583.093651 569.847857,585.13404 C569.475129,588.747151 569.062769,592.33669 568.591906,595.893228 C568.324863,597.910045 568.044609,599.916491 567.745484,601.914451 C567.201018,605.554905 566.595217,609.155758 565.947898,612.732097 C565.626125,614.509423 565.318507,616.295235 564.971257,618.056532 C564.158805,622.180683 563.25954,626.246375 562.311207,630.280953 C562.046052,631.408636 561.812979,632.557062 561.537444,633.677202 C558.939673,644.236499 555.865377,654.470503 552.3523,664.371671 C552.056005,665.205176 551.732345,666.016994 551.429445,666.845784 C549.945139,670.918077 548.391949,674.935683 546.756665,678.889173 C546.316941,679.948968 545.860232,680.993678 545.410128,682.044987 C543.804096,685.803301 542.132954,689.505985 540.391042,693.151154 C539.929614,694.117605 539.467243,695.081226 538.995436,696.039191 C537.091222,699.914422 535.108688,703.718937 533.051608,707.459337 C532.721343,708.05995 532.402401,708.670936 532.068362,709.267778 C522.055668,727.164556 510.30578,743.456555 497.008364,757.975942 L496.308202,758.72836 C493.183894,762.110465 489.975605,765.391683 486.684277,768.575784 C486.425727,768.825646 486.16812,769.078338 485.907682,769.327258 C482.43235,772.659391 478.875867,775.88875 475.219361,778.993649 C530.285874,808.452947 603.032893,807.993766 680.498928,764.816527 C799.527408,698.473704 873.565292,536.737026 834.898799,467.472222 C808.411405,420.023942 726.16295,395.795273 639.157752,402.531498 Z M499.833037,0.00177619893 C626.622155,0.00177619893 742.536122,47.4529479 830.749009,125.529016 L508.365391,447.93466 C497.011389,416.061442 481.334204,384.913346 462.113496,356.857124 C429.9449,309.907076 396.025331,283.098586 370.385327,273.330119 C363.541126,271.481291 356.787639,270.422253 350.220306,270.422253 C342.651335,270.422253 334.948184,271.620165 327.19873,273.799648 C260.198699,299.47919 171.219361,426.296375 171.219361,560.475808 C171.219361,631.835267 192.533807,689.26634 229.826962,726.493444 L125.5513,830.774974 C47.4609203,742.559194 0,626.63532 0,499.834813 C0,224.225577 224.223801,0.00177619893 499.833037,0.00177619893 Z" id="Combined-Shape" fill="#626265" fill-rule="nonzero"></path>
    </g>
</svg>