<?xml version="1.0" encoding="UTF-8"?>
<svg width="1000px" height="1000px" viewBox="0 0 1000 1000" version="1.1" xmlns="http://www.w3.org/2000/svg" xmlns:xlink="http://www.w3.org/1999/xlink">
    <title>icon-dust</title>
    <g id="icon-dust" stroke="none" stroke-width="1" fill="none" fill-rule="evenodd">
        <path d="M873.780064,167.894857 C952.301664,256.20598 1000,372.532718 1000,500 C1000,776.142375 776.142375,1000 500,1000 C372.547219,1000 256.232447,952.312516 167.924997,873.806861 L282.309267,759.419026 C282.386608,759.418995 282.462197,759.418964 282.536082,759.418931 L283.877619,759.418005 L283.951026,759.417927 L284.58977,759.417018 C284.626957,759.416949 284.663134,759.416879 284.698343,759.416807 L284.990197,759.416115 C285.01997,759.416033 285.048899,759.415949 285.077027,759.415863 L285.309642,759.415042 C285.333332,759.414945 285.356345,759.414846 285.378722,759.414746 L285.505689,759.414118 C285.52569,759.41401 285.545138,759.413899 285.564076,759.413786 L285.671904,759.413087 C285.723086,759.412724 285.770419,759.412343 285.815026,759.411942 L285.900938,759.411113 C286.039176,759.409687 286.155443,759.408036 286.291329,759.406126 C288.968625,775.332801 302.839128,787.507859 319.507091,787.507859 L357.690001,787.507859 C376.26711,787.507859 391.380804,772.386787 391.380804,753.80061 L391.380804,660.543887 C391.380804,657.429436 390.956425,654.412283 390.162485,651.54727 L479.688774,562.014023 C483.146047,578.881536 498.102715,591.607831 515.974913,591.607831 C525.272764,591.607831 532.810712,599.146843 532.810712,608.446006 C532.810712,617.745169 525.272764,625.284181 515.974913,625.284181 C490.578672,625.284181 468.275728,611.818131 455.80489,591.6561 C439.288971,600.691465 425.845025,614.959012 418.287996,631.791575 C422.622653,640.684376 425.061599,650.664924 425.061599,661.205622 L425.061966,671.494905 L425.062074,672.901178 L425.06297,681.013652 C425.063016,681.346155 425.063064,681.677191 425.063112,682.006767 L425.063987,687.313389 L425.064074,687.782901 L425.064903,691.913277 L425.065,692.361719 L425.065911,696.304737 L425.066015,696.732613 L425.066984,700.492808 L425.067095,700.900623 L425.067988,704.092339 C425.068063,704.353111 425.068139,704.612591 425.068214,704.870785 L425.068895,707.160012 C425.068971,707.410555 425.069047,707.659832 425.069123,707.907851 L425.069917,710.466086 L425.07003,710.824098 L425.070923,713.622105 C425.070997,713.850418 425.07107,714.077525 425.071143,714.303435 L425.071896,716.631743 L425.072001,716.957271 L425.072917,719.80857 L425.073015,720.116757 L425.07394,723.1056 L425.074112,723.683335 L425.074933,726.602929 C425.075057,727.074797 425.075176,727.539378 425.075287,727.996795 L425.075977,731.294964 L425.076079,731.923351 L425.076042,739.196744 L425.075919,739.690508 L425.075,742.047803 C425.074918,742.203151 425.074833,742.356951 425.074743,742.509221 L425.074157,743.404608 C425.074051,743.550824 425.073941,743.695544 425.073827,743.838786 L425.07309,744.680626 C425.063491,754.710479 425.030478,757.04416 424.942147,758.407333 L424.934762,758.517327 C424.932258,758.553356 424.929712,758.588794 424.927123,758.623781 L424.919228,758.727523 L424.90341,758.921254 C424.876237,759.241632 424.844978,759.557516 424.809062,759.989584 L670.864264,759.989584 C736.563163,759.989584 789.822652,705.919958 787.515025,640.283628 C779.786271,605.658727 764.291724,581.858527 741.392793,569.481346 C698.387967,546.234426 641.535742,567.949541 636.527094,569.946412 L636.282152,570.044956 C636.223403,570.068857 636.187748,570.083614 636.175784,570.088643 C627.598505,573.685277 617.734972,569.642992 614.14109,561.065626 C610.548331,552.488259 614.586677,542.622211 623.162833,539.028944 C625.736466,537.950179 677.591849,516.682441 729.042051,529.087686 C767.502872,494.005909 787.591348,453.78063 787.591348,410.878082 C787.591348,367.853714 769.4377,328.959356 740.335638,301.348087 Z M500,0 C626.945382,0 742.841261,47.3085454 831.018997,125.256996 L687.643162,268.642451 C671.211102,262.622994 653.458443,259.334504 634.94677,259.334504 C630.378657,259.334504 625.935128,259.479313 621.588125,259.737498 C586.088159,263.656303 558.236136,282.928156 538.678549,317.200578 C521.233295,347.770846 517.001897,379.231293 516.961491,379.545606 C515.862675,388.033169 508.617669,394.238597 500.279459,394.238597 C490.131962,394.238597 482.294336,385.368247 483.557021,375.319224 C486.054331,355.362618 495.407179,325.317701 509.14968,301.025827 C497.823677,297.630128 485.346105,295.255945 473.324223,295.255945 C404.627429,295.255945 348.73931,351.151952 348.73931,419.858442 L348.751477,421.510989 C349.437694,468.129138 379.093909,511.970464 422.981527,533.323915 L329.474,626.836 L319.507091,626.836637 C303.231065,626.836637 289.614365,638.44429 286.491228,653.81929 C286.260603,653.814897 286.079019,653.811511 285.745033,653.808915 L285.620499,653.808032 C285.554741,653.807606 285.483498,653.807204 285.405664,653.806825 L285.24088,653.806097 C285.211842,653.80598 285.181989,653.805866 285.151281,653.805755 L284.956443,653.805113 C284.922149,653.805011 284.886919,653.804911 284.85071,653.804813 L284.560158,653.804122 L284.497307,653.803993 L283.932441,653.803078 C283.880526,653.803009 283.827345,653.802943 283.772859,653.802878 L282.852454,653.802049 C282.783879,653.802003 282.713792,653.801958 282.642153,653.801915 L279.492332,653.801012 L279.321659,653.800996 L274.981786,653.800999 L274.736545,653.801012 L261.5297,653.801978 C261.248743,653.801995 260.964471,653.802012 260.676843,653.802028 L246.510352,653.802437 C227.933244,653.802437 212.81955,668.923509 212.81955,687.509686 L212.81955,725.711235 C212.81955,730.901641 213.998222,735.821813 216.101838,740.2179 L125.280713,831.045825 C47.318142,742.86477 0,626.958257 0,500 C0,223.857625 223.857625,0 500,0 Z M367.264024,229.434379 C346.421227,207.757765 312.862221,207.752159 292.014925,229.434379 C282.192393,239.649318 276.78179,252.991188 276.78179,267.002394 C276.78179,296.05852 300.493522,319.697174 329.639475,319.697174 C358.785427,319.697174 382.497159,296.05852 382.497159,267.002394 C382.497159,252.991188 377.086557,239.65044 367.264024,229.434379 Z" id="Combined-Shape" fill="#626265"></path>
    </g>
</svg>